<svg width="145" height="143" viewBox="0 0 145 143" fill="none" xmlns="http://www.w3.org/2000/svg">
<path d="M28 72.5C28 76.159 29.085 79.7357 31.1178 82.7781C33.1506 85.8204 36.04 88.1915 39.4204 89.5918C42.8008 90.992 46.5205 91.3583 50.1092 90.6445C53.6978 89.9307 56.9942 88.1687 59.5815 85.5815C62.1688 82.9942 63.9307 79.6978 64.6445 76.1092C65.3584 72.5205 64.992 68.8008 63.5917 65.4203C62.1915 62.0399 59.8204 59.1506 56.7781 57.1178C53.7357 55.085 50.159 54 46.5 54C41.5935 54 36.8879 55.9491 33.4185 59.4185C29.9491 62.8879 28 67.5935 28 72.5Z" fill="#FF5B35"/>
<path d="M72.503 36.7794C76.176 36.7788 79.7656 35.6915 82.8147 33.6558C85.8638 31.6201 88.2343 28.7283 89.6242 25.3487C91.0142 21.9692 91.3606 18.2548 90.6194 14.6788C89.8782 11.1028 88.083 7.82711 85.4624 5.26891C82.8417 2.71071 79.5144 0.985835 75.9041 0.314012C72.2938 -0.357811 68.5641 0.0538349 65.19 1.4965C61.8159 2.93917 58.9502 5.34755 56.958 8.41487C54.9657 11.4822 53.937 15.0696 54.003 18.7201C54.0029 21.1299 54.4823 23.5159 55.4133 25.7409C56.3444 27.9659 57.7088 29.9859 59.4282 31.6848C61.1475 33.3837 63.1878 34.7278 65.4317 35.64C67.6756 36.5521 70.0788 37.0142 72.503 36.9997" fill="#FF5B35"/>
<path d="M72.5 106C68.8411 106 65.2643 107.085 62.222 109.118C59.1797 111.151 56.8085 114.04 55.4082 117.42C54.008 120.801 53.6417 124.521 54.3555 128.109C55.0693 131.698 56.8313 134.994 59.4185 137.581C62.0058 140.169 65.3022 141.931 68.8908 142.645C72.4795 143.358 76.1992 142.992 79.5797 141.592C82.9601 140.192 85.8494 137.82 87.8822 134.778C89.915 131.736 91 128.159 91 124.5C91 119.593 89.0509 114.888 85.5815 111.419C82.112 107.949 77.4065 106 72.5 106Z" fill="#FF5B35"/>
<path d="M18.946 36.9916C22.5988 36.9035 26.1437 35.7358 29.1337 33.6358C32.1237 31.5357 34.4247 28.5973 35.7467 25.1912C37.0687 21.7852 37.3524 18.0639 36.562 14.4969C35.7715 10.9298 33.9424 7.67663 31.3053 5.14769C28.6682 2.61875 25.3412 0.927282 21.744 0.286624C18.1467 -0.354034 14.4403 0.0848101 11.0921 1.5478C7.74394 3.0108 4.90403 5.43242 2.93052 8.50725C0.95702 11.5821 -0.0616861 15.1724 0.00289057 18.8254C0.0312189 21.2688 0.546284 23.6819 1.51799 25.924C2.48969 28.166 3.89854 30.1918 5.66221 31.8832C7.42588 33.5745 9.50901 34.8974 11.7898 35.7745C14.0707 36.6516 16.5034 37.0654 18.946 36.9916Z" fill="#FF5B35"/>
<path d="M126.503 36.7794C130.176 36.7788 133.766 35.6915 136.815 33.6558C139.864 31.6201 142.234 28.7283 143.624 25.3487C145.014 21.9692 145.361 18.2548 144.619 14.6788C143.878 11.1028 142.083 7.82711 139.462 5.26891C136.842 2.71071 133.514 0.985835 129.904 0.314012C126.294 -0.357811 122.564 0.0538349 119.19 1.4965C115.816 2.93917 112.95 5.34755 110.958 8.41487C108.966 11.4822 107.937 15.0696 108.003 18.7201C108.003 21.1299 108.482 23.5159 109.413 25.7409C110.344 27.9659 111.709 29.9859 113.428 31.6848C115.147 33.3837 117.188 34.7278 119.432 35.64C121.676 36.5521 124.079 37.0142 126.503 36.9997" fill="#FF5B35"/>
<path d="M80 72.5C80 76.159 81.085 79.7357 83.1178 82.7781C85.1506 85.8204 88.0399 88.1915 91.4203 89.5918C94.8008 90.992 98.5205 91.3583 102.109 90.6445C105.698 89.9307 108.994 88.1687 111.581 85.5815C114.169 82.9942 115.931 79.6978 116.645 76.1092C117.358 72.5205 116.992 68.8008 115.592 65.4203C114.192 62.0399 111.82 59.1506 108.778 57.1178C105.736 55.085 102.159 54 98.5 54C93.5935 54 88.8879 55.9491 85.4185 59.4185C81.9491 62.8879 80 67.5935 80 72.5Z" fill="#FF5B35"/>
</svg>
