<svg width="94" height="31" viewBox="0 0 94 31" fill="none" xmlns="http://www.w3.org/2000/svg">
<path d="M18.0117 8.98648C18.0117 10.2727 19.0527 11.3165 20.3355 11.3165C21.6184 11.3165 22.6594 10.2727 22.6594 8.98648C22.6594 7.70022 21.6184 6.65649 20.3355 6.65649C19.0527 6.65649 18.0117 7.70022 18.0117 8.98648Z" fill="#FF5B35"/>
<path d="M23.6529 4.65996C24.9358 4.65996 25.9768 3.61624 25.9768 2.32998C25.9768 1.04373 24.9358 0 23.6529 0C22.3701 0 21.3291 1.04373 21.3291 2.32998C21.3291 3.61624 22.3701 4.65996 23.6529 4.65996Z" fill="#FF5B35"/>
<path d="M23.6529 13.3087C22.3701 13.3087 21.3291 14.3524 21.3291 15.6387C21.3291 16.925 22.3701 17.9687 23.6529 17.9687C24.9358 17.9687 25.9768 16.925 25.9768 15.6387C25.9768 14.3524 24.9358 13.3087 23.6529 13.3087Z" fill="#FF5B35"/>
<path d="M38.8917 27.9597C38.8917 27.9597 32.6113 14.6121 32.5725 14.5385C31.9677 13.4038 30.5596 12.9794 29.4279 13.5857C28.2963 14.192 27.873 15.6039 28.4777 16.7385L35.4362 29.9389C35.9805 30.896 37.1985 31.2295 38.1531 30.6795C39.1034 30.1338 39.436 28.9168 38.8917 27.9597Z" fill="#FF5B35"/>
<path d="M17.0133 4.65996C18.2961 4.65996 19.3371 3.61624 19.3371 2.32998C19.3371 1.04373 18.2961 0 17.0133 0C15.7304 0 14.6895 1.04373 14.6895 2.32998C14.6895 3.61624 15.7304 4.65996 17.0133 4.65996Z" fill="#FF5B35"/>
<path d="M30.2916 4.65996C31.5745 4.65996 32.6154 3.61624 32.6154 2.32998C32.6111 1.04373 31.5745 0 30.2916 0C29.0087 0 27.9678 1.04373 27.9678 2.32998C27.9678 3.61624 29.0087 4.65996 30.2916 4.65996Z" fill="#FF5B35"/>
<path d="M24.6465 8.98648C24.6465 10.2727 25.6875 11.3165 26.9703 11.3165C28.2532 11.3165 29.2941 10.2727 29.2941 8.98648C29.2941 7.70022 28.2532 6.65649 26.9703 6.65649C25.6875 6.65649 24.6465 7.70022 24.6465 8.98648Z" fill="#FF5B35"/>
<path d="M29.0178 21.195C28.4131 20.0603 27.0049 19.6359 25.8733 20.2422C24.7416 20.8485 24.3183 22.2604 24.923 23.395L28.5513 29.9259C29.0912 30.8874 30.305 31.2295 31.2639 30.6881C32.2228 30.1468 32.564 28.9298 32.0241 27.9684C32.0284 27.9727 29.0696 21.2859 29.0178 21.195Z" fill="#FF5B35"/>
<path d="M21.2903 25.3353C21.2903 25.3353 18.8757 26.8944 15.4461 26.8944C10.2326 26.8944 4.40578 22.5593 4.40578 15.7122C4.40578 10.381 8.12045 6.65215 11.3254 5.46983C12.5133 4.98478 13.0834 3.6249 12.5997 2.43393C12.1159 1.24295 10.7596 0.671281 9.57177 1.15633C2.47501 4.28319 0 10.6062 0 15.6386C0 24.1054 6.99741 31 15.4418 31C20.0161 31 23.3549 28.7523 23.3549 28.7523C24.2966 28.1807 24.5989 26.955 24.0288 26.0109C23.4586 25.0668 22.2319 24.7636 21.2903 25.3353Z" fill="#FF5B35"/>
<path d="M49.2792 7.53132C49.2792 8.077 48.9682 8.52741 47.8452 8.52741C46.7264 8.52741 46.4111 8.077 46.4111 7.53132V4.78125C46.4111 4.23556 46.7221 3.78516 47.8452 3.78516C48.9682 3.78516 49.2792 4.23556 49.2792 4.78125V5.12771C49.2792 5.20134 49.2533 5.23598 49.1842 5.23598H48.9121C48.8386 5.23598 48.8084 5.20134 48.8084 5.12771V4.85487C48.8084 4.46076 48.5708 4.20092 47.8495 4.20092C47.1282 4.20092 46.8906 4.46076 46.8906 4.85487V7.45769C46.8906 7.8518 47.1282 8.11165 47.8495 8.11165C48.5708 8.11165 48.8084 7.8518 48.8084 7.45769V7.09823C48.8084 7.02894 48.8343 6.9943 48.9121 6.9943H49.1842C49.2533 6.9943 49.2792 7.02894 49.2792 7.09823V7.53132Z" fill="black"/>
<path d="M50.7397 8.47102C50.6792 8.47102 50.6533 8.43637 50.6533 8.36708V3.94098C50.6533 3.87168 50.6792 3.83704 50.7484 3.83704H53.0635C53.1327 3.83704 53.1672 3.86302 53.1672 3.94098V4.15319C53.1672 4.22681 53.1327 4.25713 53.0635 4.25713H51.1285V5.84221H52.9426C53.016 5.84221 53.0463 5.86819 53.0463 5.94615V6.14536C53.0463 6.21899 53.0203 6.2493 52.9426 6.2493H51.1285V8.05526H53.1456C53.2147 8.05526 53.2493 8.08124 53.2493 8.15053V8.36708C53.2493 8.4407 53.2147 8.47102 53.1456 8.47102H50.7397Z" fill="black"/>
<path d="M57.5427 8.36708C57.5427 8.43637 57.5211 8.47102 57.4476 8.47102H57.1885C57.141 8.47102 57.115 8.45802 57.0934 8.42338L55.2923 5.2229C55.1411 4.96305 55.0676 4.79848 55.0633 4.78116V8.37141C55.0633 8.4407 55.0374 8.47535 54.9683 8.47535H54.7091C54.6357 8.47535 54.6055 8.4407 54.6055 8.37141V3.94098C54.6055 3.87168 54.6314 3.83704 54.7091 3.83704H54.9683C55.0158 3.83704 55.0374 3.85003 55.0504 3.87601L56.8904 7.12413C56.9466 7.21941 57.0934 7.53123 57.0934 7.53123V3.94098C57.0934 3.87168 57.1194 3.83704 57.1885 3.83704H57.4476C57.5211 3.83704 57.5427 3.87168 57.5427 3.94098V8.36708Z" fill="black"/>
<path d="M61.6209 3.84137C61.69 3.84137 61.7203 3.86735 61.7203 3.94531V4.15752C61.7203 4.23114 61.6857 4.26146 61.6209 4.26146H60.4547V8.37574C60.4547 8.44503 60.4288 8.47968 60.3597 8.47968H60.0659C59.9925 8.47968 59.9623 8.44503 59.9623 8.37574V4.26146H58.796C58.7226 4.26146 58.6924 4.23547 58.6924 4.15752V3.94098C58.6924 3.86735 58.7183 3.83704 58.796 3.83704H61.6209V3.84137Z" fill="black"/>
<path d="M63.3482 4.25279V6.17135H64.3071C65.0327 6.17135 65.3005 5.9115 65.3005 5.50873V4.90242C65.3005 4.50831 65.0371 4.24846 64.3071 4.24846H63.3482V4.25279ZM63.3482 6.58278V8.36708C63.3482 8.43637 63.3266 8.47102 63.2532 8.47102H62.9681C62.899 8.47102 62.873 8.43637 62.873 8.36708V3.94098C62.873 3.87168 62.899 3.83704 62.9594 3.83704H64.3028C65.4301 3.83704 65.7757 4.28744 65.7757 4.83313V5.59535C65.7757 6.01544 65.564 6.38356 64.9334 6.52215L65.8146 8.36708C65.8405 8.42771 65.793 8.47102 65.7195 8.47102H65.4344C65.361 8.47102 65.3481 8.43204 65.3135 8.36708L64.4712 6.58278H64.3028H63.3482Z" fill="black"/>
<path d="M69.6671 4.85487C69.6671 4.46076 69.395 4.20092 68.6737 4.20092C67.961 4.20092 67.6888 4.46076 67.6888 4.85487V7.45769C67.6888 7.8518 67.961 8.11165 68.6737 8.11165C69.395 8.11165 69.6671 7.8518 69.6671 7.45769V4.85487ZM67.2051 4.78125C67.2051 4.23556 67.5593 3.78516 68.6694 3.78516C69.7967 3.78516 70.1423 4.23556 70.1423 4.78125V7.53132C70.1423 8.077 69.7967 8.52741 68.6694 8.52741C67.5549 8.52741 67.2051 8.077 67.2051 7.53132V4.78125Z" fill="black"/>
<path d="M74.1119 4.25279V8.05526H75.0967C75.8223 8.05526 76.0901 7.79541 76.0901 7.4013V4.91108C76.0901 4.51698 75.8266 4.25713 75.0967 4.25713H74.1119V4.25279ZM73.7188 8.47102C73.6583 8.47102 73.6367 8.43637 73.6367 8.36708V3.94098C73.6367 3.87168 73.6626 3.83704 73.7231 3.83704H75.0967C76.2154 3.83704 76.5696 4.28744 76.5696 4.83313V7.47493C76.5696 8.02061 76.2154 8.46668 75.0967 8.46668H73.7188V8.47102Z" fill="black"/>
<path d="M78.2202 8.47102C78.1597 8.47102 78.1338 8.43637 78.1338 8.36708V3.94098C78.1338 3.87168 78.1597 3.83704 78.2288 3.83704H80.544C80.6131 3.83704 80.6477 3.86302 80.6477 3.94098V4.15319C80.6477 4.22681 80.6131 4.25713 80.544 4.25713H78.6089V5.84221H80.4231C80.4965 5.84221 80.5267 5.86819 80.5267 5.94615V6.14536C80.5267 6.21899 80.5008 6.2493 80.4231 6.2493H78.6089V8.05526H80.6261C80.6952 8.05526 80.7297 8.08124 80.7297 8.15053V8.36708C80.7297 8.4407 80.6952 8.47102 80.6261 8.47102H78.2202Z" fill="black"/>
<path d="M47.0941 17.2541C47.0941 17.3493 47.0681 17.3883 46.9731 17.3883H46.5584C46.4721 17.3883 46.4375 17.3493 46.4375 17.2541V12.8973C46.4375 12.802 46.4721 12.7587 46.5584 12.7587H46.9731C47.0681 12.7587 47.0941 12.7976 47.0941 12.8973V17.2541Z" fill="black"/>
<path d="M51.6989 17.2627C51.6989 17.3493 51.6729 17.3926 51.5779 17.3926H51.2065C51.1373 17.3926 51.1114 17.371 51.0855 17.332L49.4873 14.5256C49.3362 14.2745 49.2584 14.0622 49.2411 14.0363V17.2627C49.2411 17.3493 49.2066 17.3926 49.1202 17.3926H48.7401C48.6537 17.3926 48.6191 17.3537 48.6191 17.2627V12.8886C48.6191 12.802 48.6537 12.7587 48.7401 12.7587H49.1202C49.1763 12.7587 49.2066 12.7803 49.2282 12.815L50.8652 15.682C50.9602 15.8465 51.0769 16.1194 51.0769 16.1194V12.8929C51.0769 12.8063 51.1157 12.763 51.2065 12.763H51.5779C51.6729 12.763 51.6989 12.802 51.6989 12.8929V17.2627Z" fill="black"/>
<path d="M54.2771 17.3926C54.1907 17.3926 54.1432 17.3537 54.1129 17.2627L52.7955 12.8886C52.7696 12.802 52.8042 12.7587 52.8906 12.7587H53.3441C53.4305 12.7587 53.465 12.8063 53.4953 12.8886L54.3375 15.7166C54.4239 16.0025 54.493 16.5481 54.493 16.5481C54.493 16.5481 54.5881 15.9765 54.6615 15.7296L55.5124 12.8886C55.5383 12.8063 55.5729 12.7587 55.6636 12.7587H56.0783C56.1733 12.7587 56.2078 12.7976 56.1819 12.8886L54.8645 17.2627C54.8386 17.3537 54.7911 17.3926 54.7004 17.3926H54.2771Z" fill="black"/>
<path d="M57.3993 17.3926C57.3129 17.3926 57.2783 17.3536 57.2783 17.2583V12.8972C57.2783 12.8019 57.3129 12.7629 57.3993 12.7629H59.7231C59.8095 12.7629 59.8527 12.7976 59.8527 12.8929V13.2004C59.8527 13.2956 59.8138 13.3303 59.7231 13.3303H57.9349V14.7075H59.5978C59.6929 14.7075 59.7317 14.7421 59.7317 14.8374V15.1319C59.7317 15.2185 59.6929 15.2618 59.5978 15.2618H57.9349V16.8339H59.7965C59.8829 16.8339 59.9261 16.8599 59.9261 16.9552V17.267C59.9261 17.3623 59.8872 17.3969 59.7965 17.3969H57.3993V17.3926Z" fill="black"/>
<path d="M63.4389 13.8457C63.4389 13.4776 63.2143 13.2653 62.6182 13.2653C62.0221 13.2653 61.7975 13.4776 61.7975 13.8457V13.9799C61.7975 14.2917 62.0005 14.3827 62.1431 14.4347L63.3784 14.9067C63.7844 15.0626 64.1257 15.3268 64.1257 15.8335V16.3965C64.1257 16.9552 63.7369 17.4446 62.6052 17.4446C61.4692 17.4446 61.0762 16.9552 61.0762 16.3965V16.0024C61.0762 15.9071 61.115 15.8682 61.2058 15.8682H61.6075C61.6938 15.8682 61.7284 15.9071 61.7284 16.0024V16.3099C61.7284 16.678 61.9876 16.8902 62.5966 16.8902C63.2056 16.8902 63.4734 16.678 63.4734 16.3099V15.9894C63.4734 15.6473 63.1668 15.5347 62.9033 15.4308L61.7543 14.989C61.4563 14.8721 61.1496 14.5646 61.1496 14.1445V13.7547C61.1496 13.196 61.5038 12.7067 62.6096 12.7067C63.7153 12.7067 64.0825 13.196 64.0825 13.7547V14.0536C64.0825 14.1402 64.0479 14.1835 63.9615 14.1835H63.5598C63.4648 14.1835 63.4389 14.1445 63.4389 14.0536V13.8457Z" fill="black"/>
<path d="M67.9524 12.7629C68.0387 12.7629 68.0819 12.7976 68.0819 12.8929V13.2004C68.0819 13.2956 68.0431 13.3303 67.9524 13.3303H66.8639V17.2583C66.8639 17.3536 66.8293 17.3926 66.7429 17.3926H66.324C66.2376 17.3926 66.203 17.3536 66.203 17.2583V13.3303H65.1188C65.0238 13.3303 64.9893 13.2956 64.9893 13.2004V12.8929C64.9893 12.7976 65.0238 12.7629 65.1188 12.7629H67.9524Z" fill="black"/>
<path d="M69.8148 17.2541C69.8148 17.3493 69.7888 17.3883 69.6938 17.3883H69.2791C69.1884 17.3883 69.1582 17.3493 69.1582 17.2541V12.8973C69.1582 12.802 69.1928 12.7587 69.2791 12.7587H69.6938C69.7888 12.7587 69.8148 12.7976 69.8148 12.8973V17.2541Z" fill="black"/>
<path d="M74.1336 15.0756C74.2199 15.0756 74.2631 15.1103 74.2631 15.1969V16.3965C74.2631 16.9552 73.9305 17.4446 72.76 17.4446C71.5938 17.4446 71.2568 16.9552 71.2568 16.3965V13.7547C71.2568 13.196 71.5894 12.7067 72.76 12.7067C73.9305 12.7067 74.2631 13.196 74.2631 13.7547V14.0536C74.2631 14.1402 74.2286 14.1835 74.1422 14.1835H73.7491C73.6541 14.1835 73.6195 14.1445 73.6195 14.0536V13.863C73.6195 13.4949 73.382 13.2697 72.7686 13.2697C72.1596 13.2697 71.9263 13.4949 71.9263 13.863V16.2883C71.9263 16.6564 72.1553 16.8816 72.7686 16.8816C73.3733 16.8816 73.6195 16.665 73.6195 16.2969V15.643H72.8118C72.7211 15.643 72.6822 15.6083 72.6822 15.513V15.2012C72.6822 15.1146 72.7211 15.08 72.8118 15.08H74.1336V15.0756Z" fill="black"/>
<path d="M77.0746 14.4347C76.9925 14.1835 76.8975 13.5166 76.8932 13.4386C76.8802 13.4992 76.7895 14.1272 76.7031 14.4174L76.3144 15.669H77.4547L77.0746 14.4347ZM77.1135 12.7587C77.1999 12.7587 77.2474 12.7976 77.2776 12.8886L78.595 17.2627C78.6209 17.345 78.5864 17.3926 78.4913 17.3926H78.0637C77.9773 17.3926 77.9342 17.345 77.9126 17.2627L77.5929 16.206H76.1589L75.8479 17.2627C75.8263 17.345 75.7874 17.3926 75.6967 17.3926H75.3036C75.2173 17.3926 75.1827 17.345 75.2086 17.2627L76.526 12.8886C76.5519 12.802 76.5995 12.7587 76.6902 12.7587H77.1135Z" fill="black"/>
<path d="M82.5528 16.3965C82.5528 16.9552 82.2202 17.4446 81.0539 17.4446C79.8877 17.4446 79.5508 16.9552 79.5508 16.3965V13.7547C79.5508 13.196 79.8834 12.7067 81.0539 12.7067C82.2202 12.7067 82.5528 13.196 82.5528 13.7547V14.0882C82.5528 14.1835 82.5182 14.2225 82.4318 14.2225H82.0388C81.9437 14.2225 81.9092 14.1835 81.9092 14.0882V13.863C81.9092 13.4949 81.6716 13.2697 81.0582 13.2697C80.4492 13.2697 80.216 13.4949 80.216 13.863V16.2883C80.216 16.6564 80.4449 16.8816 81.0582 16.8816C81.6716 16.8816 81.9092 16.6564 81.9092 16.2883V15.9678C81.9092 15.8812 81.9437 15.8379 82.0388 15.8379H82.4318C82.5182 15.8379 82.5528 15.8768 82.5528 15.9678V16.3965Z" fill="black"/>
<path d="M84.4876 17.2541C84.4876 17.3493 84.4617 17.3883 84.3667 17.3883H83.952C83.8613 17.3883 83.8311 17.3493 83.8311 17.2541V12.8973C83.8311 12.802 83.8656 12.7587 83.952 12.7587H84.3667C84.4617 12.7587 84.4876 12.7976 84.4876 12.8973V17.2541Z" fill="black"/>
<path d="M87.7132 12.3038C87.6916 12.3385 87.6441 12.3861 87.549 12.3861H87.238C87.156 12.3861 87.1214 12.3515 87.1689 12.2649L87.5706 11.5373C87.6138 11.4637 87.6613 11.416 87.7477 11.416H88.1667C88.2617 11.416 88.2833 11.4723 88.2358 11.5459L87.7132 12.3038ZM88.3568 13.8629C88.3568 13.4948 88.0846 13.2696 87.4756 13.2696C86.8709 13.2696 86.5988 13.4948 86.5988 13.8629V16.2882C86.5988 16.6563 86.8709 16.8815 87.4756 16.8815C88.0846 16.8815 88.3568 16.6563 88.3568 16.2882V13.8629ZM85.9336 13.7547C85.9336 13.196 86.3137 12.7066 87.4756 12.7066C88.6418 12.7066 89.0263 13.196 89.0263 13.7547V16.3965C89.0263 16.9551 88.6462 17.4445 87.4756 17.4445C86.3137 17.4445 85.9336 16.9551 85.9336 16.3965V13.7547Z" fill="black"/>
<path d="M93.5533 17.2627C93.5533 17.3493 93.5274 17.3926 93.4324 17.3926H93.0609C92.9918 17.3926 92.9659 17.371 92.94 17.332L91.3418 14.5256C91.1906 14.2745 91.1129 14.0622 91.0956 14.0363V17.2627C91.0956 17.3493 91.0611 17.3926 90.9747 17.3926H90.5946C90.5082 17.3926 90.4736 17.3537 90.4736 17.2627V12.8886C90.4736 12.802 90.5082 12.7587 90.5946 12.7587H90.9747C91.0265 12.7587 91.0654 12.7803 91.0827 12.815L92.7197 15.682C92.8147 15.8465 92.9314 16.1194 92.9314 16.1194V12.8929C92.9314 12.8063 92.9702 12.763 93.0609 12.763H93.4324C93.5274 12.763 93.5533 12.802 93.5533 12.8929V17.2627Z" fill="black"/>
<path d="M46.5854 26.3142C46.5249 26.3142 46.499 26.2795 46.499 26.2102V21.7841C46.499 21.7148 46.5249 21.6802 46.594 21.6802H48.9092C48.9784 21.6802 49.0129 21.7062 49.0129 21.7841V21.9963C49.0129 22.0699 48.9784 22.1003 48.9092 22.1003H46.9742V23.6853H48.7883C48.8617 23.6853 48.892 23.7113 48.892 23.7893V23.9885C48.892 24.0621 48.866 24.0924 48.7883 24.0924H46.9742V25.8984H48.9913C49.0604 25.8984 49.095 25.9244 49.095 25.9937V26.2102C49.095 26.2838 49.0604 26.3142 48.9913 26.3142H46.5854Z" fill="black"/>
<path d="M52.9856 26.1756C52.9856 26.2709 52.9597 26.3099 52.8647 26.3099H52.45C52.3593 26.3099 52.3291 26.2709 52.3291 26.1756V21.8188C52.3291 21.7235 52.3637 21.6846 52.45 21.6846H52.8647C52.9597 21.6846 52.9856 21.7235 52.9856 21.8188V26.1756Z" fill="black"/>
<path d="M57.5905 26.1842C57.5905 26.2708 57.5646 26.3142 57.4695 26.3142H57.0981C57.0289 26.3142 57.003 26.2925 56.9771 26.2535L55.3789 23.4472C55.2278 23.196 55.15 22.9838 55.1327 22.9578V26.1842C55.1327 26.2708 55.0982 26.3142 55.0118 26.3142H54.6317C54.5453 26.3142 54.5107 26.2752 54.5107 26.1842V21.8101C54.5107 21.7192 54.5453 21.6802 54.6317 21.6802H55.0118C55.0679 21.6802 55.0982 21.7018 55.1198 21.7365L56.7568 24.6035C56.8519 24.7681 56.9685 25.0409 56.9685 25.0409V21.8144C56.9685 21.7235 57.0074 21.6845 57.0981 21.6845H57.4695C57.5646 21.6845 57.5905 21.7235 57.5905 21.8144V26.1842Z" fill="black"/>
<path d="M62.195 26.1842C62.195 26.2708 62.169 26.3142 62.074 26.3142H61.7025C61.6334 26.3142 61.6075 26.2925 61.5816 26.2535L59.9834 23.4472C59.8323 23.196 59.7545 22.9838 59.7372 22.9578V26.1842C59.7372 26.2708 59.7027 26.3142 59.6163 26.3142H59.2362C59.1498 26.3142 59.1152 26.2752 59.1152 26.1842V21.8101C59.1152 21.7192 59.1498 21.6802 59.2362 21.6802H59.6163C59.6724 21.6802 59.7027 21.7018 59.7243 21.7365L61.3613 24.6035C61.4563 24.7681 61.573 25.0409 61.573 25.0409V21.8144C61.573 21.7235 61.6118 21.6845 61.7025 21.6845H62.074C62.169 21.6845 62.195 21.7235 62.195 21.8144V26.1842Z" fill="black"/>
<path d="M66.0648 22.7845C66.0648 22.4164 65.7927 22.1912 65.1836 22.1912C64.5789 22.1912 64.3068 22.4164 64.3068 22.7845V25.2098C64.3068 25.5779 64.5789 25.8031 65.1836 25.8031C65.7927 25.8031 66.0648 25.5779 66.0648 25.2098V22.7845ZM63.6416 22.6762C63.6416 22.1176 64.0217 21.6282 65.1836 21.6282C66.3499 21.6282 66.7343 22.1176 66.7343 22.6762V25.318C66.7343 25.8767 66.3542 26.3661 65.1836 26.3661C64.0217 26.3661 63.6416 25.8767 63.6416 25.318V22.6762Z" fill="black"/>
<path d="M69.2058 26.3142C69.1194 26.3142 69.0719 26.2752 69.0417 26.1842L67.7242 21.8101C67.6983 21.7235 67.7329 21.6802 67.8193 21.6802H68.2728C68.3592 21.6802 68.3937 21.7278 68.424 21.8101L69.2663 24.6381C69.3526 24.924 69.4218 25.4696 69.4218 25.4696C69.4218 25.4696 69.5168 24.898 69.5902 24.6511L70.4411 21.8101C70.4671 21.7278 70.5016 21.6802 70.5923 21.6802H71.007C71.102 21.6802 71.1366 21.7192 71.1106 21.8101L69.7932 26.1842C69.7673 26.2752 69.7198 26.3142 69.6291 26.3142H69.2058Z" fill="black"/>
<path d="M73.2827 23.3562C73.2006 23.105 73.1056 22.4381 73.1013 22.3601C73.0883 22.4207 72.9976 23.0487 72.9112 23.3389L72.5225 24.5905H73.6628L73.2827 23.3562ZM73.3259 21.6802C73.4123 21.6802 73.4598 21.7192 73.49 21.8101L74.8074 26.1842C74.8333 26.2665 74.7988 26.3142 74.7038 26.3142H74.2761C74.1854 26.3142 74.1466 26.2665 74.125 26.1842L73.8053 25.1275H72.3713L72.0603 26.1842C72.0387 26.2665 71.9998 26.3142 71.9091 26.3142H71.5161C71.4253 26.3142 71.3951 26.2665 71.421 26.1842L72.7384 21.8101C72.7644 21.7235 72.8119 21.6802 72.9026 21.6802H73.3259Z" fill="black"/>
<path d="M78.7647 25.318C78.7647 25.8767 78.4321 26.3661 77.2658 26.3661C76.0953 26.3661 75.7627 25.8767 75.7627 25.318V22.6762C75.7627 22.1176 76.0953 21.6282 77.2658 21.6282C78.4321 21.6282 78.7647 22.1176 78.7647 22.6762V23.0097C78.7647 23.105 78.7301 23.144 78.6437 23.144H78.2507C78.1556 23.144 78.1211 23.105 78.1211 23.0097V22.7845C78.1211 22.4164 77.8835 22.1912 77.2702 22.1912C76.6611 22.1912 76.4279 22.4164 76.4279 22.7845V25.2098C76.4279 25.5779 76.6611 25.8031 77.2702 25.8031C77.8792 25.8031 78.1211 25.5779 78.1211 25.2098V24.8893C78.1211 24.8027 78.1556 24.7594 78.2507 24.7594H78.6437C78.7301 24.7594 78.7647 24.7983 78.7647 24.8893V25.318Z" fill="black"/>
<path d="M80.6985 26.1756C80.6985 26.2709 80.6726 26.3099 80.5776 26.3099H80.1629C80.0722 26.3099 80.042 26.2709 80.042 26.1756V21.8188C80.042 21.7235 80.0765 21.6846 80.1629 21.6846H80.5776C80.6726 21.6846 80.6985 21.7235 80.6985 21.8188V26.1756Z" fill="black"/>
<path d="M83.9261 21.2253C83.9045 21.26 83.857 21.3076 83.7619 21.3076H83.4509C83.3689 21.3076 83.3343 21.273 83.3818 21.1864L83.7835 20.4588C83.8267 20.3852 83.8699 20.3375 83.9606 20.3375H84.3796C84.4746 20.3375 84.4962 20.3938 84.4487 20.4674L83.9261 21.2253ZM84.5697 22.7844C84.5697 22.4163 84.2975 22.1911 83.6885 22.1911C83.0838 22.1911 82.8117 22.4163 82.8117 22.7844V25.2097C82.8117 25.5778 83.0838 25.803 83.6885 25.803C84.2975 25.803 84.5697 25.5778 84.5697 25.2097V22.7844ZM82.1465 22.6762C82.1465 22.1175 82.5266 21.6281 83.6885 21.6281C84.8547 21.6281 85.2392 22.1175 85.2392 22.6762V25.318C85.2392 25.8766 84.8591 26.366 83.6885 26.366C82.5266 26.366 82.1465 25.8766 82.1465 25.318V22.6762Z" fill="black"/>
<path d="M89.7657 26.1842C89.7657 26.2708 89.7398 26.3142 89.6447 26.3142H89.269C89.1998 26.3142 89.1739 26.2925 89.148 26.2535L87.5498 23.4472C87.3987 23.196 87.3209 22.9838 87.3036 22.9578V26.1842C87.3036 26.2708 87.2691 26.3142 87.1827 26.3142H86.8026C86.7162 26.3142 86.6816 26.2752 86.6816 26.1842V21.8101C86.6816 21.7192 86.7162 21.6802 86.8026 21.6802H87.1827C87.2388 21.6802 87.2691 21.7018 87.2907 21.7365L88.9277 24.6035C89.0227 24.7681 89.1394 25.0409 89.1394 25.0409V21.8144C89.1394 21.7235 89.1826 21.6845 89.269 21.6845H89.6447C89.7398 21.6845 89.7657 21.7235 89.7657 21.8144V26.1842Z" fill="black"/>
</svg>
