<svg width="48" height="38" viewBox="0 0 48 38" fill="none" xmlns="http://www.w3.org/2000/svg">
<path d="M22.0816 11.0156C22.0816 12.5923 23.3577 13.8717 24.9304 13.8717C26.5032 13.8717 27.7793 12.5923 27.7793 11.0156C27.7793 9.43892 26.5032 8.15951 24.9304 8.15951C23.3577 8.15951 22.0816 9.43892 22.0816 11.0156Z" fill="#FF5B35"/>
<path d="M28.9972 5.71221C30.57 5.71221 31.8461 4.43281 31.8461 2.85611C31.8461 1.27941 30.57 0 28.9972 0C27.4245 0 26.1484 1.27941 26.1484 2.85611C26.1484 4.43281 27.4245 5.71221 28.9972 5.71221Z" fill="#FF5B35"/>
<path d="M28.9972 16.3138C27.4245 16.3138 26.1484 17.5932 26.1484 19.1699C26.1484 20.7466 27.4245 22.026 28.9972 22.026C30.57 22.026 31.8461 20.7466 31.8461 19.1699C31.8461 17.5932 30.57 16.3138 28.9972 16.3138Z" fill="#FF5B35"/>
<path d="M47.6792 34.2733C47.6792 34.2733 39.9798 17.9117 39.9321 17.8215C39.1908 16.4306 37.4645 15.9103 36.0771 16.6535C34.6897 17.3968 34.1708 19.1274 34.9121 20.5183L43.4429 36.6994C44.1101 37.8726 45.6034 38.2814 46.7737 37.6072C47.9387 36.9383 48.3464 35.4465 47.6792 34.2733Z" fill="#FF5B35"/>
<path d="M20.8583 5.71221C22.431 5.71221 23.7072 4.43281 23.7072 2.85611C23.7072 1.27941 22.431 0 20.8583 0C19.2856 0 18.0094 1.27941 18.0094 2.85611C18.0094 4.43281 19.2856 5.71221 20.8583 5.71221Z" fill="#FF5B35"/>
<path d="M37.1362 5.71221C38.7089 5.71221 39.9851 4.43281 39.9851 2.85611C39.9798 1.27941 38.7089 0 37.1362 0C35.5635 0 34.2873 1.27941 34.2873 2.85611C34.2873 4.43281 35.5635 5.71221 37.1362 5.71221Z" fill="#FF5B35"/>
<path d="M30.2152 11.0156C30.2152 12.5923 31.4914 13.8717 33.0641 13.8717C34.6368 13.8717 35.913 12.5923 35.913 11.0156C35.913 9.43892 34.6368 8.15951 33.0641 8.15951C31.4914 8.15951 30.2152 9.43892 30.2152 11.0156Z" fill="#FF5B35"/>
<path d="M35.574 25.9811C34.8327 24.5902 33.1064 24.0699 31.719 24.8131C30.3317 25.5563 29.8127 27.287 30.5541 28.6779L35.0021 36.6835C35.6641 37.862 37.1521 38.2814 38.3276 37.6178C39.5032 36.9542 39.9215 35.4625 39.2596 34.2839C39.2649 34.2892 35.6376 26.0925 35.574 25.9811Z" fill="#FF5B35"/>
<path d="M26.1007 31.0562C26.1007 31.0562 23.1406 32.9673 18.9361 32.9673C12.5446 32.9673 5.40124 27.6532 5.40124 19.2601C5.40124 12.725 9.95523 8.15421 13.8844 6.70492C15.3406 6.11034 16.0396 4.4434 15.4465 2.98349C14.8534 1.52358 13.1907 0.822829 11.7345 1.41741C3.03423 5.25033 0 13.0011 0 19.1699C0 29.5485 8.57844 38 18.9308 38C24.5386 38 28.6319 35.2448 28.6319 35.2448C29.7863 34.544 30.1569 33.0416 29.4579 31.8843C28.759 30.727 27.2551 30.3554 26.1007 31.0562Z" fill="#FF5B35"/>
</svg>
