<svg width="48" height="39" viewBox="0 0 48 39" fill="none" xmlns="http://www.w3.org/2000/svg">
<path d="M22.0816 11.1954C22.0816 12.7978 23.3577 14.0981 24.9304 14.0981C26.5032 14.0981 27.7793 12.7978 27.7793 11.1954C27.7793 9.59293 26.5032 8.29265 24.9304 8.29265C23.3577 8.29265 22.0816 9.59293 22.0816 11.1954Z" fill="white"/>
<path d="M28.9972 5.80542C30.57 5.80542 31.8461 4.50513 31.8461 2.90271C31.8461 1.30028 30.57 0 28.9972 0C27.4245 0 26.1484 1.30028 26.1484 2.90271C26.1484 4.50513 27.4245 5.80542 28.9972 5.80542Z" fill="white"/>
<path d="M28.9972 16.58C27.4245 16.58 26.1484 17.8803 26.1484 19.4827C26.1484 21.0851 27.4245 22.3854 28.9972 22.3854C30.57 22.3854 31.8461 21.0851 31.8461 19.4827C31.8461 17.8803 30.57 16.58 28.9972 16.58Z" fill="white"/>
<path d="M47.6792 34.8325C47.6792 34.8325 39.9798 18.204 39.9321 18.1122C39.1908 16.6987 37.4645 16.1699 36.0771 16.9253C34.6897 17.6806 34.1708 19.4395 34.9121 20.8531L43.4429 37.2982C44.1101 38.4906 45.6034 38.906 46.7737 38.2208C47.9387 37.541 48.3464 36.0249 47.6792 34.8325Z" fill="white"/>
<path d="M20.8583 5.80542C22.431 5.80542 23.7072 4.50513 23.7072 2.90271C23.7072 1.30028 22.431 0 20.8583 0C19.2856 0 18.0094 1.30028 18.0094 2.90271C18.0094 4.50513 19.2856 5.80542 20.8583 5.80542Z" fill="white"/>
<path d="M37.1362 5.80542C38.7089 5.80542 39.9851 4.50513 39.9851 2.90271C39.9798 1.30028 38.7089 0 37.1362 0C35.5635 0 34.2873 1.30028 34.2873 2.90271C34.2873 4.50513 35.5635 5.80542 37.1362 5.80542Z" fill="white"/>
<path d="M30.2152 11.1954C30.2152 12.7978 31.4914 14.0981 33.0641 14.0981C34.6368 14.0981 35.913 12.7978 35.913 11.1954C35.913 9.59293 34.6368 8.29265 33.0641 8.29265C31.4914 8.29265 30.2152 9.59293 30.2152 11.1954Z" fill="white"/>
<path d="M35.574 26.405C34.8327 24.9914 33.1064 24.4626 31.719 25.218C30.3317 25.9733 29.8127 27.7322 30.5541 29.1458L35.0021 37.282C35.6641 38.4798 37.1521 38.906 38.3276 38.2316C39.5032 37.5572 39.9215 36.0411 39.2596 34.8433C39.2649 34.8487 35.6376 26.5183 35.574 26.405Z" fill="white"/>
<path d="M26.1007 31.5629C26.1007 31.5629 23.1406 33.5052 18.9361 33.5052C12.5446 33.5052 5.40124 28.1045 5.40124 19.5744C5.40124 12.9327 9.95523 8.28726 13.8844 6.81433C15.3406 6.21004 16.0396 4.5159 15.4465 3.03217C14.8534 1.54844 13.1907 0.836255 11.7345 1.44054C3.03423 5.33599 0 13.2132 0 19.4827C0 30.0306 8.57844 38.62 18.9308 38.62C24.5386 38.62 28.6319 35.8198 28.6319 35.8198C29.7863 35.1076 30.1569 33.5808 29.4579 32.4046C28.759 31.2284 27.2551 30.8507 26.1007 31.5629Z" fill="white"/>
</svg>
