<svg width="776" height="196" viewBox="0 0 776 196" fill="none" xmlns="http://www.w3.org/2000/svg">
<path d="M170.496 193.302H124.071L46.425 75.746V193.302H0V2.7149H46.425L124.071 120.813V2.7149H170.496V193.302Z" fill="#FF5B35"/>
<path d="M250.573 39.9092V78.4609H312.745V114.298H250.573V156.107H320.89V193.302H204.148V2.7149H320.89V39.9092H250.573Z" fill="#FF5B35"/>
<path d="M613.29 2.7149L563.607 193.302H507.408L477.001 67.8727L445.508 193.302H389.31L340.984 2.7149H390.667L418.088 141.447L452.024 2.7149H503.064L535.643 141.447L563.335 2.7149H613.29Z" fill="#FF5B35"/>
<path d="M705.531 195.202C691.594 195.202 679.106 192.94 668.065 188.415C657.024 183.89 648.156 177.193 641.459 168.324C634.943 159.456 631.504 148.777 631.142 136.288H680.554C681.278 143.347 683.721 148.777 687.884 152.578C692.047 156.198 697.477 158.008 704.173 158.008C711.051 158.008 716.481 156.469 720.463 153.392C724.445 150.135 726.436 145.7 726.436 140.089C726.436 135.384 724.807 131.492 721.549 128.415C718.472 125.338 714.581 122.804 709.875 120.813C705.35 118.823 698.834 116.56 690.327 114.026C678.02 110.225 667.975 106.424 660.192 102.624C652.409 98.8227 645.712 93.2119 640.102 85.7912C634.491 78.3704 631.685 68.6872 631.685 56.7416C631.685 39.0042 638.111 25.1582 650.961 15.2035C663.812 5.06783 680.554 0 701.187 0C722.182 0 739.105 5.06783 751.956 15.2035C764.806 25.1582 771.684 39.0947 772.589 57.0131H722.363C722.001 50.8593 719.739 46.063 715.576 42.6241C711.413 39.0042 706.074 37.1943 699.558 37.1943C693.947 37.1943 689.422 38.7327 685.984 41.8096C682.545 44.7055 680.825 48.9589 680.825 54.5697C680.825 60.7235 683.721 65.5198 689.513 68.9587C695.305 72.3976 704.354 76.108 716.662 80.0898C728.97 84.2527 738.924 88.2346 746.526 92.0354C754.309 95.8363 761.006 101.357 766.616 108.596C772.227 115.836 775.033 125.157 775.033 136.56C775.033 147.42 772.227 157.284 766.616 166.152C761.187 175.021 753.223 182.08 742.725 187.329C732.227 192.578 719.829 195.202 705.531 195.202Z" fill="#FF5B35"/>
</svg>
