<svg width="185" height="24" viewBox="0 0 185 24" fill="none" xmlns="http://www.w3.org/2000/svg">
<g clip-path="url(#clip0_296_1033)">
<path d="M67.8012 3.54358C64.0882 3.54358 62.3125 5.79861 62.3125 8.05365C62.3125 10.7919 64.4111 12.8859 67.6397 12.8859C70.8684 12.8859 73.1284 11.114 73.1284 8.37579C73.2898 5.63754 71.0298 3.54358 67.8012 3.54358ZM64.4111 8.37579C64.4111 5.47646 66.1868 4.18787 67.8012 4.18787C69.4155 4.34895 71.0298 5.31539 71.0298 8.05365C71.0298 10.1476 69.8998 12.2416 67.4783 12.0805C66.8326 12.0805 64.4111 11.7583 64.4111 8.37579Z" fill="black"/>
<path d="M157.234 3.54365C153.521 3.38257 151.745 5.79868 151.745 8.05371C151.745 10.792 153.844 12.8859 157.072 12.8859C160.301 12.8859 162.561 11.1141 162.561 8.37586C162.722 5.63761 160.462 3.54365 157.234 3.54365ZM153.844 8.37586C153.844 5.47653 155.619 4.18794 157.234 4.18794C158.687 4.18794 160.462 5.15439 160.301 7.89264C160.301 9.9866 159.171 12.0806 156.749 11.9195C156.265 12.0806 153.844 11.7584 153.844 8.37586Z" fill="black"/>
<path d="M179.673 3.54358C175.96 3.54358 174.185 5.79861 174.185 8.05365C174.185 10.7919 176.283 12.8859 179.512 12.8859C182.74 12.8859 185 11.114 185 8.37579C185.162 5.63754 182.902 3.54358 179.673 3.54358ZM176.283 8.37579C176.283 5.47646 178.059 4.18787 179.673 4.18787C181.126 4.18787 182.902 5.15432 182.74 7.89257C182.74 9.98653 181.61 12.0805 179.189 11.9194C178.705 12.0805 176.283 11.7583 176.283 8.37579Z" fill="black"/>
<path d="M95.7289 10.1477C95.4061 10.792 94.5989 12.0806 92.6617 12.0806C90.2403 12.0806 88.7874 9.9866 88.7874 8.05371C88.7874 5.31545 90.7246 4.34901 92.3389 4.34901C93.9532 4.34901 94.7603 4.99331 95.2446 6.2819H96.0518C95.8903 5.47653 95.8904 4.51009 95.8904 4.18794V3.86579H95.7289C95.7289 3.86579 95.5675 3.86579 95.4061 3.70472C94.9218 3.54364 93.7917 3.38257 92.8232 3.38257C91.0474 3.38257 89.5945 3.86579 88.4645 4.51009C87.6574 5.15438 86.5273 6.2819 86.5273 8.21478C86.5273 9.66445 87.3345 10.953 88.626 11.7584C89.9174 12.5638 91.2088 12.8859 92.8232 12.8859C93.9532 12.8859 94.5989 12.7249 95.2446 12.5638C95.4061 12.5638 95.5675 12.4027 95.7289 12.4027C96.0518 12.0806 96.3746 11.1141 96.5361 10.1477H95.7289Z" fill="black"/>
<path d="M60.375 10.4698C59.8908 11.5973 58.7607 13.2081 56.0164 13.2081C52.1421 13.2081 49.5592 10.6309 49.5592 6.7651C49.5592 2.41611 52.6264 0.805369 55.6935 0.805369C58.115 0.805369 59.5679 1.77181 60.0522 3.54362H60.8593C60.6979 2.41611 60.5365 1.12752 60.5365 0.644295V0.483222H60.375C60.2136 0.483222 60.0522 0.483222 59.8907 0.483222C58.7607 0.161074 56.985 0 55.855 0C53.5949 0 51.4963 0.644295 49.882 1.77181C48.1063 3.0604 47.1377 4.99329 47.1377 7.08725C47.1377 9.34228 48.2677 11.4362 50.3663 12.7248C51.8192 13.6913 53.5949 14.0134 55.855 14.0134C57.3078 14.0134 58.9222 13.6913 59.4065 13.5302C59.5679 13.5302 59.8907 13.3691 60.2136 13.3691C60.5365 12.8859 61.1822 11.5973 61.3436 10.6309H60.375V10.4698Z" fill="black"/>
<path d="M14.3674 0.805365L14.2059 0.322144H10.1702V0.966439C11.4616 1.28859 11.623 1.77181 11.3002 2.73825C10.8159 3.86577 10.0087 5.47651 9.52443 6.60402C9.363 6.92617 9.20157 7.24832 8.87871 7.73154C8.71728 8.37584 8.39442 9.02013 8.07155 9.66443L7.74869 10.3087C7.58726 10.6309 7.58726 10.7919 7.58726 11.1141C7.58726 10.953 7.42583 10.6309 7.42583 10.3087L7.10297 9.8255C6.45724 8.53691 5.97295 7.24832 5.32723 5.95973L4.03578 3.0604C4.03578 3.0604 4.03578 3.0604 4.03578 2.89932L3.55148 1.77181L3.39005 1.61073C3.22862 1.12751 3.39005 0.644291 3.55148 0.322144C3.55148 0.322144 2.42147 0.322144 1.29145 0.322144H0V0.966439C0 0.966439 1.13002 0.966439 1.29145 1.77181L3.55148 6.7651L5.65009 11.2752C5.97295 11.9195 6.45724 13.047 6.61867 13.8523C6.78011 13.8523 6.94154 13.8523 6.94154 13.8523C7.10297 13.8523 7.10297 13.8523 7.2644 13.8523C7.74869 12.8859 8.71728 10.4698 9.68586 8.69798L10.8159 6.28188C11.623 4.51006 12.5916 2.73825 13.0759 1.77181C13.7216 0.966439 14.3674 0.805365 14.3674 0.805365Z" fill="black"/>
<path d="M167.888 8.05371C166.92 8.05371 166.92 8.05371 166.92 7.73156V4.9933C166.92 4.51008 166.92 4.51008 167.727 4.51008C169.341 4.51008 169.825 5.47652 169.825 6.28189C169.825 7.57048 169.18 8.05371 167.888 8.05371ZM173.7 12.0806C173.216 12.0806 172.893 11.9195 172.57 11.7584C171.924 11.2752 170.956 10.3087 169.825 8.53693V8.37585C171.117 7.89263 171.763 7.24834 171.763 6.12082C171.763 4.02686 169.503 3.70471 167.565 3.70471H164.014V4.02686C164.821 4.18793 164.983 4.34901 164.983 4.83223V8.85907V10.3087V10.953C164.983 11.5973 164.66 11.9195 163.853 12.0806V12.7248H168.05V12.2416L166.597 12.0806C166.597 12.0806 166.758 11.7584 166.758 11.1141V10.4698V9.02015C166.758 8.85907 166.758 8.85907 167.243 8.85907C167.565 8.85907 167.888 8.85907 168.05 9.18122C168.211 9.3423 168.211 9.50337 168.373 9.66444C168.695 10.1477 169.18 10.792 169.664 11.2752C170.633 12.4027 171.44 12.7248 172.731 12.7248C173.054 12.7248 173.538 12.7248 173.7 12.5638V12.0806Z" fill="black"/>
<path d="M150.292 0.322207H141.09C140.122 0.322207 139.476 0.161133 139.476 0.161133L138.669 3.38261H139.476C140.445 1.28865 141.09 1.12758 142.543 1.12758H143.835C144.158 1.12758 144.158 1.12758 144.158 1.6108V9.50342V12.2417C144.158 12.886 143.512 13.2081 142.866 13.3692V14.0135H147.386V13.5303L145.933 13.3692C145.933 13.3692 146.095 13.047 146.095 12.4027V11.5974V1.6108C146.095 1.28865 146.095 1.12758 146.095 1.12758C146.095 1.12758 146.256 1.12758 146.418 1.12758H147.548H148.193C149.969 1.12758 150.776 1.6108 150.776 3.70476H151.583L151.906 0.161133C151.906 0.161133 151.261 0.322207 150.292 0.322207Z" fill="black"/>
<path d="M133.826 3.70471H131.243V4.02686C131.889 4.18793 131.889 4.51008 131.727 4.83223C131.727 4.83223 131.566 4.9933 131.566 5.15438L130.274 7.40941C129.952 7.89263 129.79 8.21478 129.79 8.53693C129.79 8.05371 129.629 7.89263 129.306 7.40941L128.014 5.31545L127.53 4.51008C127.369 4.18793 127.53 3.86579 127.53 3.86579C127.53 3.86579 126.884 3.86579 125.593 3.86579H124.947V4.18793C124.947 4.18793 125.27 4.18793 125.593 4.67116L127.369 7.57048L127.853 8.37585C128.337 9.3423 128.499 9.50337 128.499 9.98659V10.1477V11.1141C128.499 11.7584 128.337 12.0806 127.692 12.2416V12.8859H131.405V12.4027L130.274 12.2416C130.274 12.2416 130.274 11.7584 130.274 11.2752V10.6309V9.50337C130.274 9.02015 130.274 8.698 131.082 7.57048L132.373 5.79867L132.696 5.47652L133.18 4.67116C133.665 4.02686 133.987 3.86579 133.987 3.86579L133.826 3.70471Z" fill="black"/>
<path d="M116.714 8.698C116.714 8.698 116.391 8.698 116.23 8.698H114.777C114.616 8.698 114.454 8.698 114.454 8.698C114.454 8.698 114.454 8.53693 114.616 8.21478L115.261 6.92619V6.76511C115.423 6.60404 115.423 6.28189 115.423 6.28189C115.584 5.95975 115.584 5.6376 115.584 5.6376C115.584 5.79867 115.584 5.95975 115.746 6.28189L116.069 6.92619L116.553 8.21478C116.714 8.37585 116.714 8.53693 116.714 8.698ZM119.62 11.1141L119.297 10.3087L117.683 6.28189C117.36 5.47652 117.037 4.67115 116.876 4.34901C116.714 4.18793 116.714 4.02686 116.714 3.86579C116.714 3.70471 116.391 3.70471 116.23 3.70471C116.069 3.86579 115.746 4.34901 115.423 4.34901C115.423 4.67115 115.261 5.15438 114.938 5.95975L113.486 9.3423V9.50337L113.001 10.6309L112.356 11.2752C112.194 11.5973 111.871 12.0806 111.226 12.0806V12.7248H111.871H112.033H112.194C112.517 12.7248 113.001 12.7248 113.001 12.7248H114.616V12.0806L113.163 11.9195L113.486 11.1141L113.647 10.792L113.808 10.4698L114.131 9.82552C114.293 9.3423 114.293 9.3423 114.777 9.3423H116.876C117.36 9.3423 117.36 9.3423 117.521 9.82552L117.844 11.2752V11.4363C118.006 11.9195 117.683 12.0806 117.199 12.0806V12.7248H120.589V12.2416C120.104 12.0806 119.943 11.7584 119.62 11.1141Z" fill="black"/>
<path d="M37.4515 8.698C37.4515 8.698 37.1287 8.698 36.9673 8.698H35.5144C35.3529 8.698 35.1915 8.698 35.1915 8.698C35.1915 8.698 35.1915 8.53693 35.3529 8.21478L35.9987 6.92619V6.76511C36.1601 6.60404 36.1601 6.28189 36.1601 6.28189C36.3215 5.95975 36.3215 5.6376 36.3215 5.6376C36.3215 5.79867 36.3215 5.95975 36.483 6.28189L36.8058 6.92619L37.2901 8.21478C37.4515 8.37585 37.613 8.53693 37.4515 8.698ZM40.5187 11.1141L40.1959 10.3087L38.5816 6.28189C38.2587 5.47652 37.9358 4.67115 37.7744 4.34901C37.613 4.18793 37.613 4.02686 37.613 3.86579C37.613 3.70471 37.2901 3.70471 37.1287 3.70471C36.9673 3.86579 36.6444 4.34901 36.3215 4.34901C36.3215 4.67115 36.1601 5.15438 35.8372 5.95975L33.9001 9.3423V9.50337L33.4158 10.6309L33.0929 11.2752C32.9315 11.5973 32.6086 12.0806 31.9629 12.0806V12.7248H32.6086H32.77H32.9315C33.2543 12.7248 33.7386 12.7248 33.7386 12.7248H35.3529L35.5144 12.2416L33.9001 11.9195L34.2229 11.1141L34.3844 10.792L34.5458 10.3087L34.8687 9.66444C35.0301 9.18122 35.0301 9.18122 35.5144 9.18122H37.613C38.0973 9.18122 38.0973 9.18122 38.2587 9.66444L38.5816 11.2752L38.743 11.4363C38.9044 11.9195 38.5816 12.0806 38.0973 12.0806V12.7248H41.4873V12.2416C41.003 12.0806 40.6802 11.7584 40.5187 11.1141Z" fill="black"/>
<path d="M23.4077 2.25498C23.892 1.77176 24.3763 1.61069 24.6992 1.61069C24.8606 1.61069 25.1835 1.61069 25.3449 1.77176L26.4749 2.09391C26.7978 2.25498 26.9592 2.25498 27.1207 2.25498C27.2821 2.25498 27.4435 2.25498 27.6049 2.09391C27.9278 1.93283 28.5735 1.44961 28.8964 0.966391C28.8964 0.805317 28.5735 0.644243 28.4121 0.644243C27.9278 0.966391 27.7664 1.12746 27.4435 1.12746C27.2821 1.12746 27.1207 1.12746 26.6364 0.966391L25.5063 0.644243C25.0221 0.483169 24.6992 0.483169 24.0535 0.644243C23.5692 0.805317 22.9234 1.61069 22.6006 1.93283C22.9234 2.09391 23.2463 2.25498 23.4077 2.25498Z" fill="black"/>
<path d="M31.1557 4.02686L30.9943 3.70471H27.7657V4.18793C29.0571 4.34901 29.0571 4.67115 29.0571 5.31545V7.08726V7.89263V8.698V9.02015C29.0571 9.50337 29.0571 9.66444 29.2186 10.1477C29.0571 9.98659 28.8957 9.66444 28.7343 9.66444L27.1199 8.21478L25.0213 6.28189C24.0528 5.31545 23.2456 4.51008 22.9227 3.86579C22.9227 3.86579 21.4699 3.86579 20.8241 3.86579H20.3398V4.34901C21.3084 4.83223 21.6313 5.15438 21.6313 6.28189V11.2752C21.6313 11.9195 21.147 12.2416 20.5013 12.2416V12.8859H22.1156H22.4384H23.7299V12.4027L22.5999 11.9195V7.08726C22.5999 6.60404 22.5999 6.44297 22.4384 5.95975C22.5999 6.12082 22.9227 6.28189 22.9227 6.44297C23.0842 6.60404 27.4428 10.792 27.4428 10.792L28.25 11.4363C29.0571 12.2416 29.38 12.5638 29.5414 12.8859C29.5414 12.8859 29.5414 12.8859 29.7028 12.8859C29.8643 12.8859 30.0257 12.7248 30.1871 12.5638C30.1871 12.4027 30.1871 12.0806 30.1871 10.3087V6.92619V5.47652C30.0257 4.18793 31.1557 4.02686 31.1557 4.02686Z" fill="black"/>
<path d="M85.5581 4.02686L85.3966 3.70471H82.168V4.18793C83.298 4.34901 83.4595 4.67115 83.4595 5.31545V7.08726V7.89263V8.698V9.02015C83.4595 9.50337 83.4595 9.66444 83.6209 10.1477C83.4595 9.98659 83.298 9.66444 83.1366 9.66444L81.5223 8.21478L79.4237 6.28189C78.4551 5.31545 77.648 4.51008 77.3251 3.86579C77.3251 3.86579 75.8722 3.86579 75.2265 3.86579H74.7422V4.34901C75.7108 4.83223 76.0336 5.15438 76.0336 6.28189V11.2752C76.0336 11.9195 75.5493 12.2416 74.9036 12.2416V12.8859H76.5179H76.8408H78.1322V12.4027L77.1637 12.2416V7.40941C77.1637 6.92619 77.1637 6.76512 77.0022 6.28189C77.1637 6.60404 77.3251 6.76512 77.4865 6.92619C77.6479 7.08726 82.0066 11.2752 82.0066 11.2752L82.8137 11.9195C83.4595 12.2416 83.7823 12.5638 83.9438 12.8859C83.9438 12.8859 83.9438 12.8859 84.1052 12.8859C84.2666 12.8859 84.4281 12.7248 84.5895 12.5638C84.5895 12.4027 84.5895 12.0806 84.5895 10.3087V6.92619V5.47652C84.4281 4.18793 85.5581 4.02686 85.5581 4.02686Z" fill="black"/>
<path d="M16.9501 11.9195C16.9501 11.9195 16.9501 11.4363 16.9501 10.953V10.6309V10.4698V5.95975V5.15438C16.9501 4.18793 17.2729 3.70471 17.2729 3.70471C17.2729 3.70471 16.7887 3.70471 15.1743 3.70471H14.3672V4.02686C15.1743 4.18793 15.1743 4.34901 15.1743 4.83223V5.79867V8.05371V10.792C15.1743 11.4363 15.0129 11.7584 14.3672 11.9195V12.5638H18.0801V12.0806L16.9501 11.9195Z" fill="black"/>
<path d="M106.383 5.95975V4.9933C106.383 4.34901 106.383 4.34901 105.576 4.18793V3.70471H106.383C107.997 3.70471 108.481 3.70471 108.481 3.70471C108.481 3.70471 108.159 4.18793 108.159 5.15438V5.95975V9.18122V10.953C108.159 11.4363 108.159 11.9195 108.159 11.9195L109.289 12.0806V12.5638H105.576V12.0806C106.221 11.9195 106.383 11.5973 106.383 10.953V10.1477V8.85908C106.383 8.37585 106.383 8.37585 105.737 8.37585H101.863C101.217 8.37585 101.217 8.37585 101.217 8.698V9.18122V10.953C101.217 11.4363 101.217 11.9195 101.217 11.9195L102.347 12.0806V12.5638H98.4727V12.0806C99.1184 11.9195 99.2798 11.5973 99.2798 10.953V5.95975V5.31545V4.9933C99.2798 4.34901 99.2798 4.34901 98.4727 4.18793V3.70471H99.2798C100.894 3.70471 101.378 3.70471 101.378 3.70471C101.378 3.70471 101.056 4.18793 101.056 5.15438V5.95975V7.24834C101.056 7.57048 101.056 7.57048 101.701 7.57048H105.576C106.221 7.57048 106.221 7.57048 106.221 7.08726L106.383 5.95975Z" fill="black"/>
<path d="M161.915 22.0671L146.095 22.2282V21.4229L161.915 21.745V22.0671Z" fill="black"/>
<path d="M47.299 20.1342H45.8461V21.5839H47.299V21.906H45.8461V23.8389H44.8775V20.7785C44.8775 20.2953 44.8775 19.9731 44.5547 19.9731H47.299V20.1342Z" fill="black"/>
<path d="M90.8859 20.1342H89.4331V21.5839H90.8859V21.906H89.4331V23.8389H88.4645V20.7785C88.4645 20.2953 88.4645 19.9731 88.1416 19.9731H90.8859V20.1342Z" fill="black"/>
<path d="M51.3349 22.3893L50.6892 20.9396L50.0435 22.3893H51.3349ZM52.9492 23.8389H51.9807L51.4964 22.7114H50.0435L49.5592 23.8389H49.2363L51.0121 19.9731H51.4964L52.9492 23.8389Z" fill="black"/>
<path d="M59.4062 23.839H58.599V20.7786L57.3076 22.8725H57.1462L55.8547 20.9396V24H55.5318V20.9396C55.5318 20.4564 55.5318 20.1343 55.209 20.1343H56.339L57.6305 22.0672L58.9219 20.1343H59.7291V23.839H59.4062Z" fill="black"/>
<path d="M63.4428 23.8389H62.4742V20.7785C62.4742 20.2953 62.4742 19.9731 62.1514 19.9731H63.4428V23.8389Z" fill="black"/>
<path d="M68.9309 23.8389H66.5094V20.7785C66.5094 20.2953 66.5094 19.9731 66.1865 19.9731H67.478V23.6778H68.9309V23.8389Z" fill="black"/>
<path d="M73.9352 19.9731L72.4823 21.906V24H71.5137V21.906L70.7066 20.7785C70.3837 20.2953 70.2223 20.1342 69.8994 20.1342H71.1909L72.3209 21.745L73.4509 20.1342H73.9352V19.9731Z" fill="black"/>
<path d="M83.4596 19.9732C82.491 19.9732 82.0067 20.7786 82.0067 21.9061C82.0067 23.0336 82.491 23.839 83.4596 23.839C84.4281 23.839 84.9124 23.0336 84.9124 21.9061C84.9124 20.7786 84.2667 19.9732 83.4596 19.9732ZM83.4596 24.0001C82.0067 24.0001 81.0381 23.1947 81.0381 21.9061C81.0381 20.7786 82.0067 19.8121 83.4596 19.8121C84.9124 19.8121 85.881 20.6175 85.881 21.9061C85.881 23.0336 84.9124 24.0001 83.4596 24.0001Z" fill="black"/>
<path d="M104.284 19.9731L102.832 23.8389H102.509L101.379 20.9396L100.087 23.8389H99.6029L98.4729 20.7785C98.3114 20.2953 98.15 20.1342 97.8271 19.9731H99.1186L100.087 22.5503L100.249 22.8725L101.379 19.9731H101.701L102.832 22.8725L103.8 19.9731H104.284Z" fill="black"/>
<path d="M107.674 23.8389H106.706V20.7785C106.706 20.2953 106.706 19.9731 106.383 19.9731H107.674V23.8389Z" fill="black"/>
<path d="M114.132 23.8389H113.648L111.065 20.4564V23.8389H110.742V20.7785C110.742 20.2953 110.742 19.9731 110.419 19.9731H111.71L113.809 22.7114V19.9731H114.132V23.8389Z" fill="black"/>
<path d="M119.782 23.8389H117.199V20.7785C117.199 20.2953 117.199 19.9731 116.876 19.9731H119.62V20.2953H118.006V21.745H119.459V22.0671H118.006V23.6778H119.62V23.8389H119.782Z" fill="black"/>
<path d="M135.118 23.8389H132.535V20.7785C132.535 20.2953 132.535 19.9731 132.212 19.9731H134.956V20.2953H133.342V21.745H134.795V22.0671H133.342V23.6778H134.956V23.8389H135.118Z" fill="black"/>
<path d="M123.656 20.2953H123.333V21.906H123.656C124.141 21.906 124.302 21.5839 124.302 21.1007C124.463 20.4564 124.141 20.2953 123.656 20.2953ZM126.078 23.8389H125.109L124.463 22.8725C123.979 22.2282 123.818 22.0671 123.495 22.0671H123.333V23.8389H122.365V20.7785C122.365 20.2953 122.365 19.9731 122.042 19.9731H123.818C124.625 19.9731 125.271 20.2953 125.271 20.9396C125.271 21.4228 124.948 21.745 124.141 21.906C124.625 22.0671 124.948 22.3893 125.109 22.7114L125.271 22.8725L126.078 23.8389Z" fill="black"/>
<path d="M129.467 23.8389H128.499V20.7785C128.499 20.2953 128.499 19.9731 128.176 19.9731H129.467V23.8389Z" fill="black"/>
<path d="M138.508 24.0001C138.185 24.0001 137.701 24.0001 137.378 23.839V23.0336H137.539C137.701 23.5168 138.185 23.839 138.508 23.839C138.992 23.839 139.315 23.5168 139.315 23.1947C139.315 22.7115 138.992 22.5504 138.347 22.2282C137.862 21.9061 137.378 21.745 137.378 20.9397C137.378 20.1343 138.185 19.8121 138.831 19.8121C139.315 19.8121 139.638 19.8121 139.799 19.9732V20.7786H139.638C139.477 20.2954 139.154 19.9732 138.669 19.9732C138.347 19.9732 137.862 20.1343 137.862 20.6175C137.862 21.1007 138.347 21.2618 138.669 21.4229C139.154 21.745 139.799 21.9061 139.799 22.7115C140.122 23.6779 139.315 24.0001 138.508 24.0001Z" fill="black"/>
<path d="M23.085 21.745L38.9052 21.4229V22.2282L23.085 22.0671V21.745Z" fill="black"/>
</g>
<defs>
<clipPath id="clip0_296_1033">
<rect width="185" height="24" fill="white"/>
</clipPath>
</defs>
</svg>
