<svg width="83" height="83" viewBox="0 0 83 83" fill="none" xmlns="http://www.w3.org/2000/svg">
<circle cx="41.0271" cy="41.0271" r="41.0271" fill="white"/>
<path d="M47.713 56.9375C47.6965 56.8606 47.6965 56.781 47.713 56.7041L48.531 55.478L48.7648 55.3029C50.1179 54.8463 51.3335 54.0554 52.2987 53.0037C53.2639 51.952 53.9473 50.6735 54.2855 49.2873C54.6236 47.901 54.6055 46.4518 54.2329 45.0744C53.8602 43.697 53.145 42.4359 52.1539 41.4086C52.0555 41.3067 51.9376 41.2257 51.8071 41.1706C51.6765 41.1154 51.5362 41.0872 51.3944 41.0875H42.9214V35.2496C42.9396 34.1676 42.7393 33.0929 42.3327 32.0899C41.9261 31.0869 41.3215 30.1761 40.5548 29.4116C39.9103 28.7841 39.1708 28.262 38.3635 27.8646V16.393H39.4738C39.59 16.397 39.7058 16.3772 39.814 16.3346C39.9222 16.2921 40.0203 16.2277 40.1026 16.1456C40.1848 16.0635 40.2493 15.9652 40.292 15.8572C40.3346 15.7491 40.3543 15.6334 40.3503 15.5173V12.5983C40.3543 12.4822 40.3346 12.3666 40.292 12.2585C40.2493 12.1504 40.1848 12.0522 40.1026 11.9701C40.0203 11.8879 39.9222 11.8236 39.814 11.781C39.7058 11.7385 39.59 11.7186 39.4738 11.7227H30.212C30.0982 11.7226 29.9856 11.7454 29.8809 11.7898C29.7761 11.8341 29.6814 11.8991 29.6023 11.9808C29.5232 12.0626 29.4614 12.1594 29.4206 12.2655C29.3798 12.3715 29.3607 12.4847 29.3646 12.5983V15.5173C29.3607 15.6309 29.3798 15.7441 29.4206 15.8502C29.4614 15.9563 29.5232 16.0531 29.6023 16.1348C29.6814 16.2165 29.7761 16.2815 29.8809 16.3259C29.9856 16.3702 30.0982 16.393 30.212 16.393H31.3223V27.8646C29.96 28.5285 28.8124 29.5624 28.0114 30.848C27.2105 32.1335 26.7883 33.6185 26.7935 35.1328V68.1756C26.7895 68.2892 26.8086 68.4024 26.8495 68.5085C26.8903 68.6146 26.9521 68.7114 27.0312 68.7931C27.1103 68.8748 27.205 68.9398 27.3097 68.9842C27.4145 69.0285 27.5271 69.0513 27.6409 69.0512H52.0371C52.1636 69.0746 52.2936 69.0699 52.418 69.0374C52.5425 69.005 52.6583 68.9455 52.7572 68.8633C52.8561 68.7811 52.9355 68.6783 52.9901 68.5619C53.0447 68.4456 53.073 68.3187 53.073 68.1902C53.073 68.0617 53.0447 67.9348 52.9901 67.8185C52.9355 67.7021 52.8561 67.5992 52.7572 67.517C52.6583 67.4348 52.5425 67.3754 52.418 67.343C52.2936 67.3105 52.1636 67.3057 52.0371 67.3291H47.5961V57.3754C47.6755 57.2433 47.7162 57.0916 47.713 56.9375ZM42.454 43.0724H50.9853C52.1663 44.5773 52.7116 46.4839 52.5047 48.385C52.1837 49.5458 51.6007 50.6177 50.8004 51.5184C50.0002 52.4191 49.004 53.1246 47.8883 53.5807C47.4525 53.8052 47.0574 54.1012 46.7196 54.4564C46.3812 54.094 45.9867 53.7884 45.551 53.5515C44.5437 53.039 43.6182 52.3799 42.8046 51.5959C41.6496 50.4988 40.9671 48.9958 40.9017 47.405C40.8362 45.8142 41.393 44.2604 42.454 43.0724ZM28.5759 67.5334V35.4247C28.5897 34.1651 28.9775 32.9379 29.69 31.8986C30.4026 30.8593 31.4079 30.0548 32.5786 29.5868C32.7404 29.5274 32.8801 29.4202 32.9793 29.2794C33.0785 29.1385 33.1324 28.9708 33.1337 28.7986V15.8676C33.1261 15.6404 33.0303 15.4251 32.8668 15.2672C32.7032 15.1092 32.4846 15.021 32.2571 15.0211H31.2345V13.8244H38.7434V15.0211H37.6623C37.5486 15.0172 37.4352 15.0362 37.329 15.077C37.2228 15.1178 37.1261 15.1795 37.0443 15.2585C36.9625 15.3374 36.8973 15.4321 36.8529 15.5367C36.8085 15.6414 36.7858 15.7539 36.7859 15.8676V28.7986C36.7853 28.9748 36.838 29.1472 36.9371 29.293C37.0361 29.4388 37.1769 29.5514 37.341 29.616C38.1466 29.9203 38.8749 30.3987 39.4738 31.017C40.0646 31.6002 40.5319 32.2961 40.8482 33.0633C41.1644 33.8305 41.323 34.6534 41.3145 35.4831V41.5837C41.11 41.8464 36.0262 47.8887 41.519 53.2596C42.4717 54.1601 43.543 54.9262 44.7036 55.5364C45.0227 55.6819 45.2969 55.9103 45.4973 56.1979C45.6978 56.4855 45.8172 56.8215 45.8431 57.171C45.8032 57.3142 45.8032 57.4657 45.8431 57.6089V67.7669L28.5759 67.5334Z" fill="#FF5B35"/>
</svg>
