<svg width="83" height="83" viewBox="0 0 83 83" fill="none" xmlns="http://www.w3.org/2000/svg">
<circle cx="41.0271" cy="41.0271" r="41.0271" fill="white"/>
<path d="M35.8031 70.0871C35.6883 70.0871 35.5748 70.0637 35.4693 70.0186C35.3639 69.9734 35.2687 69.9073 35.1895 69.8243C35.1047 69.7402 35.0374 69.6402 34.9914 69.53C34.9455 69.4198 34.9219 69.3016 34.9219 69.1822C34.9219 69.0628 34.9455 68.9446 34.9914 68.8344C35.0374 68.7241 35.1047 68.6241 35.1895 68.54C35.5401 68.1898 44.2468 59.2285 40.0395 41.6271C38.7629 36.6112 38.5744 31.3805 39.4864 26.2858C40.3985 21.1911 42.3902 16.35 45.3279 12.087C45.3971 11.9908 45.4851 11.9097 45.5866 11.8485C45.6882 11.7873 45.8011 11.7472 45.9185 11.7308C46.036 11.7144 46.1555 11.722 46.2699 11.7532C46.3843 11.7843 46.4913 11.8383 46.5842 11.9119C46.7467 12.0805 46.8374 12.3054 46.8374 12.5395C46.8374 12.7735 46.7467 12.9985 46.5842 13.1671C43.8506 17.2412 41.9993 21.8409 41.149 26.6716C40.2987 31.5022 40.4681 36.457 41.6465 41.2184C45.9999 59.462 37.2931 68.8027 36.2997 69.8243C36.1662 69.9623 35.9923 70.0543 35.8031 70.0871Z" fill="#FF5B35"/>
<path d="M12.6039 46.9106C12.4891 46.9106 12.3756 46.8873 12.2701 46.8421C12.1647 46.797 12.0695 46.731 11.9903 46.6479C11.9055 46.5638 11.8382 46.4637 11.7923 46.3535C11.7464 46.2433 11.7227 46.1251 11.7227 46.0058C11.7227 45.8864 11.7464 45.7681 11.7923 45.6579C11.8382 45.5477 11.9055 45.4477 11.9903 45.3636C12.9837 44.3711 22.3331 35.6726 40.5938 40.0218C45.3597 41.1991 50.3192 41.3684 55.1543 40.5189C59.9895 39.6694 64.5937 37.8198 68.6716 35.0888C68.8622 34.9478 69.1006 34.8872 69.3356 34.9199C69.5705 34.9527 69.7831 35.0762 69.9279 35.2639C70.0903 35.4325 70.1811 35.6574 70.1811 35.8915C70.1811 36.1255 70.0903 36.3505 69.9279 36.5191C65.6518 39.4463 60.8002 41.429 55.6965 42.335C50.5929 43.2411 45.3546 43.0495 40.3309 41.7732C22.8006 37.5699 13.7725 46.2685 13.3927 46.6479C13.2918 46.7515 13.1675 46.8293 13.0302 46.875C12.893 46.9207 12.7468 46.933 12.6039 46.9106Z" fill="#FF5B35"/>
<path d="M64.2 35.672C64.0809 35.6726 63.9627 35.6497 63.8524 35.6046C63.7421 35.5595 63.6418 35.4932 63.5572 35.4093L46.436 18.2749C46.2694 18.1085 46.1758 17.8827 46.1758 17.6473C46.1758 17.4119 46.2694 17.1861 46.436 17.0197C46.6026 16.8533 46.8286 16.7598 47.0642 16.7598C47.2998 16.7598 47.5258 16.8533 47.6924 17.0197L64.8428 34.1249C64.9276 34.209 64.9949 34.309 65.0408 34.4192C65.0868 34.5295 65.1104 34.6477 65.1104 34.7671C65.1104 34.8865 65.0868 35.0046 65.0408 35.1149C64.9949 35.2251 64.9276 35.3252 64.8428 35.4093C64.7582 35.4932 64.6579 35.5595 64.5476 35.6046C64.4373 35.6497 64.3192 35.6726 64.2 35.672Z" fill="#FF5B35"/>
<path d="M34.7792 65.0663C34.66 65.0669 34.5419 65.044 34.4316 64.9989C34.3213 64.9538 34.221 64.8875 34.1364 64.8036L16.986 47.6692C16.902 47.5876 16.8354 47.4901 16.7898 47.3823C16.7443 47.2745 16.7207 47.1586 16.7207 47.0416C16.7207 46.9246 16.7443 46.8089 16.7898 46.7011C16.8354 46.5933 16.902 46.4957 16.986 46.4141C17.0702 46.3293 17.1703 46.2621 17.2807 46.2162C17.391 46.1703 17.5092 46.1467 17.6287 46.1467C17.7482 46.1467 17.8665 46.1703 17.9768 46.2162C18.0872 46.2621 18.1873 46.3293 18.2715 46.4141L35.3343 63.6652C35.4183 63.7468 35.4849 63.8443 35.5305 63.9521C35.576 64.0599 35.5996 64.1758 35.5996 64.2928C35.5996 64.4098 35.576 64.5256 35.5305 64.6334C35.4849 64.7412 35.4183 64.8387 35.3343 64.9203C35.1719 65.032 34.9756 65.0837 34.7792 65.0663Z" fill="#FF5B35"/>
<path d="M60.5772 36.8694C60.458 36.87 60.3398 36.8471 60.2295 36.802C60.1192 36.7569 60.019 36.6906 59.9344 36.6067L45.3258 22.0118C45.2419 21.9302 45.1751 21.8326 45.1296 21.7248C45.084 21.617 45.0605 21.5012 45.0605 21.3842C45.0605 21.2672 45.084 21.1514 45.1296 21.0436C45.1751 20.9358 45.2419 20.8382 45.3258 20.7566C45.41 20.6719 45.5101 20.6046 45.6204 20.5587C45.7307 20.5129 45.8491 20.4893 45.9686 20.4893C46.0881 20.4893 46.2064 20.5129 46.3167 20.5587C46.427 20.6046 46.5271 20.6719 46.6113 20.7566L61.2199 35.3514C61.3038 35.433 61.3705 35.5307 61.4161 35.6385C61.4617 35.7463 61.4851 35.8621 61.4851 35.9791C61.4851 36.0961 61.4617 36.2119 61.4161 36.3197C61.3705 36.4274 61.3038 36.5251 61.2199 36.6067C61.1363 36.6919 61.0362 36.7592 60.9257 36.8043C60.8152 36.8495 60.6966 36.8716 60.5772 36.8694Z" fill="#FF5B35"/>
<path d="M35.9779 61.4174C35.8587 61.418 35.7407 61.3951 35.6304 61.35C35.5201 61.3049 35.4197 61.2386 35.3351 61.1547L20.7266 46.5599C20.6418 46.4757 20.5745 46.3757 20.5285 46.2654C20.4826 46.1552 20.459 46.0371 20.459 45.9177C20.459 45.7983 20.4826 45.68 20.5285 45.5698C20.5745 45.4596 20.6418 45.3596 20.7266 45.2755C20.8986 45.1196 21.1225 45.0332 21.3547 45.0332C21.587 45.0332 21.8109 45.1196 21.9829 45.2755L36.5914 59.8704C36.6754 59.952 36.7421 60.0495 36.7877 60.1573C36.8333 60.2651 36.8567 60.3809 36.8567 60.4979C36.8567 60.6149 36.8333 60.7307 36.7877 60.8385C36.7421 60.9463 36.6754 61.0439 36.5914 61.1255C36.4326 61.2987 36.2126 61.4034 35.9779 61.4174Z" fill="#FF5B35"/>
<path d="M57.1895 38.3287C57.0704 38.3293 56.9522 38.3064 56.8419 38.2613C56.7316 38.2162 56.6313 38.1498 56.5468 38.066L43.7496 25.2809C43.6657 25.1993 43.5989 25.1016 43.5534 24.9938C43.5078 24.886 43.4844 24.7703 43.4844 24.6533C43.4844 24.5363 43.5078 24.4204 43.5534 24.3126C43.5989 24.2049 43.6657 24.1073 43.7496 24.0257C43.8338 23.941 43.9339 23.8737 44.0442 23.8278C44.1546 23.7819 44.2729 23.7583 44.3924 23.7583C44.5119 23.7583 44.6302 23.7819 44.7405 23.8278C44.8508 23.8737 44.951 23.941 45.0352 24.0257L57.8031 36.8107C57.887 36.8923 57.9537 36.99 57.9992 37.0978C58.0448 37.2055 58.0682 37.3214 58.0682 37.4384C58.0682 37.5554 58.0448 37.6712 57.9992 37.7789C57.9537 37.8867 57.887 37.9844 57.8031 38.066C57.6412 38.231 57.4207 38.3254 57.1895 38.3287Z" fill="#FF5B35"/>
<path d="M37.4365 58.0313C37.3173 58.0319 37.1992 58.009 37.0889 57.964C36.9786 57.9189 36.8783 57.8525 36.7937 57.7686L24.0258 45.0126C23.9433 44.9302 23.8779 44.8324 23.8332 44.7247C23.7886 44.617 23.7656 44.5016 23.7656 44.3851C23.7656 44.2685 23.7886 44.1532 23.8332 44.0455C23.8779 43.9378 23.9433 43.8399 24.0258 43.7575C24.1083 43.6751 24.2062 43.6097 24.314 43.5651C24.4218 43.5205 24.5373 43.4976 24.654 43.4976C24.7706 43.4976 24.8862 43.5205 24.9939 43.5651C25.1017 43.6097 25.1996 43.6751 25.2821 43.7575L38.0792 56.5134C38.1632 56.595 38.2298 56.6926 38.2754 56.8004C38.321 56.9082 38.3444 57.024 38.3444 57.141C38.3444 57.258 38.321 57.3738 38.2754 57.4816C38.2298 57.5894 38.1632 57.687 38.0792 57.7686C37.9947 57.8525 37.8943 57.9189 37.784 57.964C37.6737 58.009 37.5556 58.0319 37.4365 58.0313Z" fill="#FF5B35"/>
<path d="M53.7109 39.7002C53.5917 39.7008 53.4735 39.678 53.3632 39.6329C53.2529 39.5878 53.1527 39.5214 53.0681 39.4375L42.3746 28.6373C42.2907 28.5557 42.2239 28.4582 42.1784 28.3504C42.1328 28.2426 42.1094 28.1267 42.1094 28.0097C42.1094 27.8927 42.1328 27.7769 42.1784 27.6691C42.2239 27.5613 42.2907 27.4638 42.3746 27.3822C42.4588 27.2974 42.5589 27.2302 42.6692 27.1843C42.7796 27.1384 42.8979 27.1147 43.0174 27.1147C43.1369 27.1147 43.2552 27.1384 43.3655 27.1843C43.4758 27.2302 43.576 27.2974 43.6602 27.3822L54.3244 38.0656C54.4084 38.1472 54.475 38.2447 54.5206 38.3525C54.5661 38.4603 54.5897 38.5762 54.5897 38.6932C54.5897 38.8102 54.5661 38.9259 54.5206 39.0337C54.475 39.1415 54.4084 39.2391 54.3244 39.3207C54.2564 39.4252 54.1662 39.5134 54.0602 39.579C53.9541 39.6446 53.8348 39.686 53.7109 39.7002Z" fill="#FF5B35"/>
<path d="M38.811 54.5876C38.6963 54.5876 38.5827 54.5642 38.4773 54.519C38.3718 54.4739 38.2766 54.4078 38.1975 54.3248L27.504 43.6414C27.4192 43.5573 27.3519 43.4572 27.306 43.347C27.26 43.2368 27.2363 43.1186 27.2363 42.9992C27.2363 42.8798 27.26 42.7616 27.306 42.6514C27.3519 42.5412 27.4192 42.4412 27.504 42.3571C27.5857 42.2732 27.6833 42.2065 27.7912 42.161C27.8991 42.1155 28.015 42.092 28.1322 42.092C28.2493 42.092 28.3652 42.1155 28.4731 42.161C28.581 42.2065 28.6786 42.2732 28.7603 42.3571L39.4538 53.0404C39.5386 53.1245 39.6059 53.2246 39.6518 53.3348C39.6978 53.445 39.7214 53.5632 39.7214 53.6826C39.7214 53.802 39.6978 53.9202 39.6518 54.0304C39.6059 54.1407 39.5386 54.2407 39.4538 54.3248C39.3692 54.4086 39.2689 54.475 39.1586 54.5201C39.0483 54.5652 38.9302 54.5882 38.811 54.5876Z" fill="#FF5B35"/>
<path d="M49.1255 39.9922C49.0107 39.9922 48.8972 39.9689 48.7917 39.9237C48.6863 39.8786 48.5911 39.8124 48.5119 39.7294L42.1134 33.3369C42.0286 33.2528 41.9613 33.1528 41.9153 33.0426C41.8694 32.9323 41.8457 32.8142 41.8457 32.6948C41.8457 32.5754 41.8694 32.4571 41.9153 32.3469C41.9613 32.2367 42.0286 32.1367 42.1134 32.0526C42.195 31.9688 42.2927 31.9021 42.4006 31.8565C42.5085 31.811 42.6244 31.7876 42.7415 31.7876C42.8586 31.7876 42.9746 31.811 43.0825 31.8565C43.1904 31.9021 43.288 31.9688 43.3697 32.0526L49.7682 38.4451C49.8531 38.5292 49.9203 38.6293 49.9663 38.7395C50.0122 38.8497 50.0358 38.9679 50.0358 39.0873C50.0358 39.2066 50.0122 39.3249 49.9663 39.4351C49.9203 39.5453 49.8531 39.6453 49.7682 39.7294C49.6837 39.8133 49.5833 39.8797 49.473 39.9248C49.3627 39.9699 49.2446 39.9928 49.1255 39.9922Z" fill="#FF5B35"/>
<path d="M39.1015 50.0047C38.9824 50.0053 38.8642 49.9824 38.7539 49.9373C38.6436 49.8922 38.5433 49.8259 38.4587 49.742L32.0602 43.2326C31.9763 43.151 31.9095 43.0535 31.8639 42.9457C31.8184 42.8379 31.7949 42.7221 31.7949 42.6051C31.7949 42.4881 31.8184 42.3722 31.8639 42.2644C31.9095 42.1566 31.9763 42.0591 32.0602 41.9775C32.1444 41.8928 32.2445 41.8255 32.3548 41.7797C32.4651 41.7338 32.5835 41.7101 32.703 41.7101C32.8225 41.7101 32.9407 41.7338 33.0511 41.7797C33.1614 41.8255 33.2616 41.8928 33.3457 41.9775L39.7151 48.3701C39.799 48.4517 39.8657 48.5492 39.9112 48.657C39.9568 48.7648 39.9803 48.8806 39.9803 48.9976C39.9803 49.1146 39.9568 49.2304 39.9112 49.3382C39.8657 49.446 39.799 49.5436 39.7151 49.6252C39.6456 49.7283 39.555 49.8155 39.4492 49.8809C39.3434 49.9464 39.2249 49.9886 39.1015 50.0047Z" fill="#FF5B35"/>
</svg>
