<svg width="83" height="83" viewBox="0 0 83 83" fill="none" xmlns="http://www.w3.org/2000/svg">
<circle cx="41.0271" cy="41.0271" r="41.0271" fill="white"/>
<path d="M40.7131 49.7979C39.6073 49.795 38.5136 49.5665 37.4992 49.1265C35.5938 48.2652 34.105 46.6882 33.3557 44.7374C32.6064 42.7867 32.657 40.6195 33.4965 38.7057C33.9143 37.7554 34.5165 36.8972 35.2683 36.1809C36.0202 35.4645 36.9067 34.9041 37.8767 34.5323C38.8467 34.1604 39.8808 33.9843 40.9194 34.0143C41.9579 34.0442 42.9801 34.2796 43.927 34.7068C44.8767 35.1219 45.7333 35.7234 46.446 36.4755C47.1587 37.2277 47.7129 38.1151 48.0759 39.0852C48.4521 40.0508 48.6334 41.0812 48.6091 42.1171C48.5849 43.153 48.3557 44.1739 47.9348 45.1209C47.5138 46.0679 46.9093 46.9223 46.1563 47.6348C45.4033 48.3474 44.5165 48.9039 43.5472 49.2724C42.6423 49.618 41.6819 49.7961 40.7131 49.7979ZM40.7131 35.6409C39.9421 35.6422 39.1785 35.7908 38.4634 36.0787C37.6943 36.3715 36.9911 36.8138 36.3943 37.38C35.7975 37.9461 35.319 38.625 34.9865 39.3771C34.6691 40.1302 34.5056 40.939 34.5056 41.7561C34.5056 42.5732 34.6691 43.382 34.9865 44.1351C35.2708 44.9083 35.7103 45.6153 36.2781 46.2127C36.8458 46.81 37.5299 47.2851 38.2881 47.6087C39.0468 47.9266 39.8612 48.0903 40.6839 48.0903C41.5066 48.0903 42.321 47.9266 43.0797 47.6087C44.6228 47.0009 45.8693 45.8183 46.5566 44.3102C46.8748 43.5523 47.0387 42.7385 47.0387 41.9166C47.0387 41.0947 46.8748 40.281 46.5566 39.523C46.2678 38.7523 45.8267 38.0476 45.2594 37.4508C44.6922 36.854 44.0105 36.3774 43.255 36.0495C42.444 35.7434 41.5793 35.6044 40.7131 35.6409Z" fill="#FF5B35"/>
<path d="M33.1478 25.6658C32.2406 25.6608 31.3567 25.3784 30.6149 24.8566C29.8732 24.3347 29.3093 23.5985 28.9989 22.7468C28.5603 21.6607 28.5603 20.4469 28.9989 19.3608C29.4842 18.2962 30.3683 17.4644 31.461 17.0441C32.5536 16.6238 33.7678 16.6486 34.8424 17.1131C35.3717 17.3467 35.8488 17.6841 36.2453 18.1053C36.6417 18.5265 36.9496 19.0229 37.1505 19.5651C37.3763 20.1143 37.4895 20.703 37.4834 21.2967C37.4773 21.8903 37.3521 22.4766 37.115 23.021C36.878 23.5654 36.5341 24.0567 36.1035 24.4659C35.673 24.875 35.1647 25.1937 34.6086 25.4031C34.1406 25.5747 33.6463 25.6636 33.1478 25.6658ZM33.1478 18.4559C32.809 18.4563 32.4728 18.5156 32.1544 18.631C31.8077 18.7594 31.4912 18.9579 31.2247 19.2141C30.9583 19.4702 30.7476 19.7785 30.6058 20.1197C30.4551 20.4547 30.3771 20.8178 30.3771 21.1851C30.3771 21.5524 30.4551 21.9155 30.6058 22.2505C30.6366 22.7073 30.7744 23.1505 31.0082 23.5442C31.242 23.938 31.5653 24.2713 31.9518 24.5172C32.3384 24.7631 32.7774 24.9146 33.2334 24.9596C33.6895 25.0047 34.1497 24.942 34.577 24.7765C35.0043 24.611 35.3866 24.3475 35.6931 24.0071C35.9996 23.6667 36.2216 23.2591 36.3413 22.8172C36.461 22.3752 36.4749 21.9114 36.382 21.4631C36.2891 21.0148 36.092 20.5946 35.8065 20.2364C35.5316 19.5556 35.01 19.0032 34.3457 18.6894C33.9652 18.5351 33.5584 18.4559 33.1478 18.4559Z" fill="#FF5B35"/>
<path d="M26.1054 64.9186C25.3649 64.9279 24.6342 64.7496 23.9814 64.4003C23.3286 64.051 22.7751 63.5422 22.3725 62.9213C21.9698 62.3004 21.7312 61.5877 21.6789 60.8497C21.6266 60.1118 21.7623 59.3726 22.0734 58.7012C22.3026 58.166 22.6383 57.683 23.0602 57.2815C23.4822 56.8801 23.9815 56.5686 24.5277 56.3661C25.0773 56.1405 25.6667 56.0274 26.2609 56.0334C26.855 56.0395 27.4419 56.1646 27.9868 56.4014C28.5317 56.6382 29.0235 56.9819 29.433 57.412C29.8426 57.8422 30.1616 58.35 30.3711 58.9056C30.5962 59.4565 30.708 60.0471 30.7 60.6421C30.692 61.2371 30.5642 61.8244 30.3243 62.3691C30.0844 62.9137 29.7373 63.4046 29.3036 63.8125C28.87 64.2204 28.3586 64.5371 27.8 64.7435C27.253 64.9167 26.6763 64.9763 26.1054 64.9186ZM26.1054 57.7088C25.7666 57.7092 25.4305 57.7684 25.112 57.8839C24.4378 58.175 23.8981 58.7091 23.6003 59.3798C23.3026 60.0506 23.2685 60.8087 23.5051 61.5034C23.78 62.1843 24.3016 62.7367 24.9659 63.0504C25.4698 63.2191 26.0102 63.2472 26.529 63.1319C27.0477 63.0165 27.5251 62.7619 27.9098 62.3956C28.2945 62.0293 28.5719 61.5651 28.7121 61.053C28.8524 60.5409 28.8502 60.0002 28.7057 59.4893C28.4881 58.9752 28.1274 58.5342 27.6666 58.2186C27.2057 57.903 26.6639 57.7261 26.1054 57.7088Z" fill="#FF5B35"/>
<path d="M64.0892 50.3816C63.182 50.3766 62.2981 50.0942 61.5564 49.5724C60.8147 49.0505 60.2507 48.3143 59.9403 47.4626C59.5017 46.3765 59.5017 45.1627 59.9403 44.0766C60.1798 43.5431 60.5225 43.0621 60.9487 42.6614C61.3749 42.2606 61.8762 41.948 62.4238 41.7414C63.2307 41.4405 64.1081 41.3822 64.9478 41.5735C65.7875 41.7649 66.5528 42.1976 67.1493 42.8183C67.7457 43.4391 68.1473 44.2207 68.3044 45.0667C68.4615 45.9127 68.3674 46.7862 68.0335 47.5794C67.8001 48.1119 67.4628 48.5927 67.0415 48.9936C66.6201 49.3945 66.123 49.7076 65.5792 49.9145C65.1153 50.1599 64.6102 50.3182 64.0892 50.3816ZM61.4888 46.9664C61.6968 47.4773 62.0525 47.9145 62.5105 48.2224C62.9685 48.5302 63.508 48.6947 64.06 48.6947C64.612 48.6947 65.1514 48.5302 65.6094 48.2224C66.0674 47.9145 66.4231 47.4773 66.631 46.9664C66.8998 46.2815 66.8998 45.5204 66.631 44.8355C66.5043 44.4927 66.3096 44.179 66.0586 43.9131C65.8076 43.6473 65.5054 43.4348 65.1702 43.2885C64.4846 43.02 63.7229 43.02 63.0373 43.2885C62.6942 43.4151 62.3801 43.6096 62.1141 43.8604C61.848 44.1112 61.6353 44.4131 61.4888 44.748C61.3374 45.0879 61.2592 45.4559 61.2592 45.828C61.2592 46.2001 61.3374 46.568 61.4888 46.908V46.9664Z" fill="#FF5B35"/>
<path d="M28.1808 58.4971C28.0001 58.4973 27.8247 58.4355 27.6841 58.322C27.5404 58.1615 27.4609 57.9537 27.4609 57.7383C27.4609 57.5229 27.5404 57.315 27.6841 57.1544L35.7481 46.9672C35.814 46.8793 35.8969 46.8056 35.992 46.7504C36.087 46.6953 36.1923 46.6598 36.3014 46.6462C36.4105 46.6326 36.5212 46.6411 36.6269 46.6711C36.7326 46.7012 36.8312 46.7523 36.9167 46.8212C36.9936 46.8948 37.0548 46.9832 37.0966 47.081C37.1384 47.1788 37.16 47.2841 37.16 47.3905C37.16 47.4968 37.1384 47.6021 37.0966 47.6999C37.0548 47.7978 36.9936 47.8861 36.9167 47.9597L28.8528 58.1761C28.776 58.2808 28.6744 58.3649 28.5572 58.4209C28.4399 58.4769 28.3107 58.503 28.1808 58.4971Z" fill="#FF5B35"/>
<path d="M60.4041 46.033L47.5778 43.8145C47.4696 43.797 47.366 43.7579 47.2732 43.6996C47.1804 43.6413 47.1003 43.565 47.0376 43.4751C46.9749 43.3853 46.9309 43.2837 46.9083 43.1765C46.8856 43.0694 46.8848 42.9588 46.9058 42.8513C46.9233 42.747 46.9616 42.6473 47.0185 42.5581C47.0754 42.4688 47.1496 42.392 47.2369 42.3321C47.3241 42.2721 47.4226 42.2303 47.5263 42.2092C47.63 42.1881 47.737 42.1881 47.8407 42.2091L60.6671 44.4276C60.7741 44.4415 60.8771 44.4772 60.9697 44.5325C61.0624 44.5878 61.1427 44.6615 61.2056 44.7491C61.2686 44.8366 61.313 44.9362 61.3359 45.0415C61.3589 45.1469 61.3599 45.2558 61.339 45.3616C61.3251 45.4685 61.2893 45.5714 61.234 45.664C61.1786 45.7566 61.1048 45.8368 61.0172 45.8997C60.9296 45.9626 60.8299 46.0069 60.7245 46.0299C60.619 46.0528 60.51 46.0538 60.4041 46.033Z" fill="#FF5B35"/>
<path d="M38.084 36.1372C37.9191 36.1363 37.7583 36.0857 37.6228 35.9919C37.4872 35.8981 37.3832 35.7656 37.3243 35.6118L32.9417 24.1403C32.8654 23.9389 32.8717 23.7156 32.9592 23.5188C33.0467 23.3221 33.2084 23.1678 33.4092 23.0895C33.5086 23.0476 33.6155 23.0264 33.7234 23.0274C33.8313 23.0284 33.9378 23.0516 34.0364 23.0953C34.135 23.1391 34.2235 23.2026 34.2966 23.2819C34.3696 23.3612 34.4256 23.4546 34.461 23.5564L38.8728 35.028C38.9399 35.2334 38.9258 35.4567 38.8335 35.6521C38.7411 35.8474 38.5775 36.0001 38.3761 36.0788L38.084 36.1372Z" fill="#FF5B35"/>
<path d="M51.5237 32.08C50.6915 32.08 49.8781 31.8335 49.1862 31.3716C48.4944 30.9097 47.9551 30.2532 47.6367 29.4852C47.3182 28.7171 47.2349 27.872 47.3973 27.0567C47.5596 26.2413 47.9603 25.4923 48.5487 24.9045C49.1371 24.3166 49.8867 23.9163 50.7029 23.7541C51.519 23.5919 52.365 23.6752 53.1337 23.9933C53.9025 24.3114 54.5596 24.8502 55.0219 25.5414C55.4842 26.2326 55.7309 27.0453 55.7309 27.8766C55.7309 28.9914 55.2877 30.0606 54.4986 30.8489C53.7096 31.6372 52.6395 32.08 51.5237 32.08ZM51.5237 25.3372C51.0139 25.3372 50.5157 25.4886 50.0922 25.7721C49.6688 26.0557 49.3393 26.4587 49.1456 26.9297C48.9519 27.4008 48.9027 27.9187 49.0043 28.4178C49.1059 28.9169 49.3537 29.3745 49.7162 29.7325C50.0787 30.0906 50.5396 30.3329 51.0402 30.4287C51.5409 30.5245 52.0587 30.4694 52.528 30.2705C52.9973 30.0716 53.3968 29.7379 53.6758 29.3116C53.9547 28.8854 54.1006 28.3859 54.0948 27.8766C54.0871 27.2005 53.8128 26.5546 53.3314 26.0792C52.8501 25.6038 52.2005 25.3371 51.5237 25.3372Z" fill="#FF5B35"/>
<path d="M32.8772 25.1525C32.0451 25.1525 31.2316 24.906 30.5397 24.4441C29.8479 23.9822 29.3086 23.3257 28.9902 22.5577C28.6717 21.7896 28.5884 20.9445 28.7508 20.1292C28.9131 19.3138 29.3138 18.5648 29.9022 17.977C30.4906 17.3892 31.2402 16.9888 32.0564 16.8266C32.8725 16.6644 33.7185 16.7477 34.4872 17.0658C35.256 17.3839 35.9131 17.9227 36.3754 18.6139C36.8377 19.3052 37.0844 20.1178 37.0844 20.9492C37.0844 22.0639 36.6412 23.1331 35.8522 23.9214C35.0631 24.7097 33.993 25.1525 32.8772 25.1525ZM32.8772 18.4097C32.3674 18.4097 31.8692 18.5611 31.4457 18.8446C31.0223 19.1282 30.6928 19.5312 30.4991 20.0022C30.3054 20.4733 30.2562 20.9913 30.3578 21.4903C30.4594 21.9894 30.7072 22.447 31.0697 22.805C31.4322 23.1631 31.8931 23.4054 32.3937 23.5012C32.8944 23.597 33.4122 23.5419 33.8815 23.343C34.3508 23.1441 34.7503 22.8104 35.0293 22.3841C35.3082 21.9579 35.4541 21.4584 35.4483 20.9492C35.4406 20.273 35.1663 19.6271 34.685 19.1517C34.2036 18.6763 33.554 18.4096 32.8772 18.4097Z" fill="#FF5B35"/>
<path d="M48.135 61.8825C47.3043 61.871 46.4955 61.614 45.8108 61.1439C45.126 60.6738 44.5959 60.0116 44.2873 59.2409C43.9787 58.4702 43.9054 57.6255 44.0767 56.8133C44.2479 56.001 44.6561 55.2576 45.2497 54.6768C45.8432 54.096 46.5956 53.7037 47.412 53.5495C48.2284 53.3953 49.0722 53.4861 49.8371 53.8103C50.6019 54.1346 51.2536 54.6778 51.7098 55.3715C52.166 56.0652 52.4065 56.8784 52.4008 57.7084C52.397 58.2629 52.2834 58.8112 52.0666 59.3216C51.8498 59.832 51.534 60.2946 51.1375 60.6826C50.741 61.0705 50.2716 61.3763 49.7563 61.5823C49.241 61.7882 48.69 61.8903 48.135 61.8825ZM48.135 55.1105C47.6265 55.1105 47.1295 55.2612 46.7066 55.5434C46.2838 55.8257 45.9543 56.2269 45.7597 56.6962C45.5651 57.1656 45.5142 57.6821 45.6134 58.1804C45.7126 58.6787 45.9574 59.1363 46.317 59.4956C46.6766 59.8548 47.1347 60.0995 47.6335 60.1986C48.1322 60.2977 48.6492 60.2468 49.119 60.0524C49.5888 59.858 49.9904 59.5288 50.2729 59.1064C50.5554 58.684 50.7062 58.1873 50.7062 57.6792C50.7101 57.3408 50.6463 57.0051 50.5184 56.6917C50.3906 56.3783 50.2014 56.0935 49.9618 55.8542C49.7223 55.6148 49.4373 55.4258 49.1236 55.2981C48.8099 55.1704 48.4738 55.1066 48.135 55.1105Z" fill="#FF5B35"/>
<path d="M22.6272 44.6898C21.7951 44.6898 20.9816 44.4432 20.2897 43.9814C19.5979 43.5195 19.0586 42.8631 18.7402 42.095C18.4217 41.327 18.3384 40.4818 18.5008 39.6664C18.6631 38.8511 19.0638 38.1021 19.6522 37.5143C20.2406 36.9264 20.9902 36.5262 21.8064 36.364C22.6225 36.2018 23.4685 36.285 24.2372 36.6032C25.006 36.9213 25.6631 37.46 26.1254 38.1513C26.5877 38.8425 26.8344 39.6552 26.8344 40.4865C26.8268 41.5989 26.3811 42.6636 25.5937 43.4502C24.8063 44.2368 23.7406 44.6822 22.6272 44.6898ZM22.6272 37.9178C22.1187 37.9178 21.6215 38.0685 21.1987 38.3507C20.7759 38.633 20.4464 39.0341 20.2518 39.5035C20.0572 39.9729 20.0063 40.4893 20.1055 40.9876C20.2047 41.4859 20.4495 41.9436 20.8091 42.3028C21.1687 42.6621 21.6268 42.9068 22.1256 43.0059C22.6243 43.105 23.1413 43.0541 23.6111 42.8597C24.0809 42.6653 24.4824 42.336 24.765 41.9136C25.0475 41.4911 25.1983 40.9945 25.1983 40.4865C25.1907 39.8076 24.9174 39.1586 24.4368 38.6785C23.9563 38.1984 23.3067 37.9254 22.6272 37.9178Z" fill="#FF5B35"/>
<path d="M46.7023 55.4314C46.5447 55.4318 46.3902 55.3883 46.256 55.3058C46.1218 55.2233 46.0133 55.1051 45.9426 54.9644L43.0209 48.6302C42.9719 48.535 42.9428 48.4306 42.9354 48.3237C42.9281 48.2168 42.9427 48.1096 42.9782 48.0086C43.0137 47.9075 43.0696 47.8147 43.1422 47.7359C43.2149 47.6571 43.3028 47.5938 43.4007 47.5502C43.4983 47.5006 43.6048 47.4712 43.7139 47.4636C43.8231 47.4559 43.9326 47.4701 44.0361 47.5055C44.1396 47.5409 44.235 47.5967 44.3166 47.6695C44.3982 47.7424 44.4643 47.8308 44.511 47.9296L47.4327 54.2638C47.4823 54.3613 47.5118 54.4677 47.5194 54.5767C47.5271 54.6857 47.5129 54.7952 47.4774 54.8986C47.442 55.002 47.3862 55.0973 47.3133 55.1788C47.2404 55.2603 47.1518 55.3264 47.0529 55.3731L46.7023 55.4314Z" fill="#FF5B35"/>
<path d="M44.9485 37.2755C44.7709 37.2865 44.5952 37.2349 44.4518 37.1296C44.2867 36.9879 44.1803 36.7898 44.1533 36.5739C44.1263 36.3581 44.1806 36.14 44.3057 35.962L48.8052 30.124C48.9578 29.976 49.1622 29.8933 49.3749 29.8933C49.5876 29.8933 49.792 29.976 49.9447 30.124C50.0326 30.1899 50.1064 30.2728 50.1616 30.3678C50.2168 30.4627 50.2523 30.5679 50.266 30.6769C50.2796 30.7858 50.2711 30.8965 50.241 31.0021C50.2109 31.1077 50.1598 31.2062 50.0908 31.2917L45.6205 37.1296C45.5249 37.1995 45.4157 37.2486 45.3 37.2738C45.1842 37.2989 45.0645 37.2995 44.9485 37.2755Z" fill="#FF5B35"/>
<path d="M33.5562 42.1798L25.989 41.5961C25.7722 41.5671 25.574 41.4582 25.4335 41.2908C25.2929 41.1234 25.2201 40.9095 25.2293 40.6912C25.2402 40.5836 25.2724 40.4793 25.3239 40.3842C25.3755 40.2892 25.4454 40.2053 25.5296 40.1374C25.6139 40.0695 25.7108 40.019 25.8147 39.9888C25.9186 39.9586 26.0275 39.9493 26.135 39.9615L33.673 40.5452C33.89 40.5452 34.0981 40.6313 34.2515 40.7846C34.405 40.9378 34.4911 41.1458 34.4911 41.3625C34.4911 41.5793 34.405 41.7872 34.2515 41.9405C34.0981 42.0937 33.89 42.1798 33.673 42.1798H33.5562Z" fill="#FF5B35"/>
</svg>
