<svg width="83" height="83" viewBox="0 0 83 83" fill="none" xmlns="http://www.w3.org/2000/svg">
<circle cx="41.0271" cy="41.0271" r="41.0271" fill="white"/>
<path d="M50.9199 43.0695H49.1376C48.5239 43.0665 47.9326 42.8393 47.4751 42.4306C47.0176 42.0219 46.7256 41.46 46.6542 40.851L46.0699 36.5018L44.0539 34.8672C43.3924 34.3418 42.9087 33.6259 42.6683 32.8165C42.4279 32.0072 42.4424 31.1436 42.7099 30.3428L42.9729 29.6131C43.2095 28.858 43.7145 28.2154 44.3927 27.8068C45.0709 27.3981 45.8753 27.2515 46.6542 27.3946L47.9397 27.599L46.5665 23.921C46.3559 23.3404 46.3644 22.7029 46.5903 22.128C46.8162 21.5531 47.244 21.0802 47.7937 20.7977L50.131 19.7469H60.6784V21.4982H50.3355L48.5825 22.374C48.421 22.4611 48.2964 22.6037 48.232 22.7754C48.1675 22.9471 48.1675 23.1363 48.2319 23.3081L50.6861 29.8465L46.3621 29.146C45.999 29.0716 45.6213 29.1351 45.3025 29.324C44.9838 29.5129 44.747 29.8136 44.6383 30.1676L44.4045 30.9265C44.2476 31.3804 44.2365 31.8719 44.3727 32.3324C44.5089 32.7929 44.7856 33.1994 45.1641 33.4952L47.706 35.5386L48.4072 40.6175C48.4273 40.8014 48.5116 40.9723 48.6451 41.1004C48.7786 41.2284 48.953 41.3055 49.1376 41.3181H50.9199C51.4357 41.3184 51.9375 41.1502 52.3489 40.8394C52.7602 40.5285 53.0588 40.0918 53.1989 39.5959L54.1922 37.2899L54.835 33.8747L52.2931 31.3352L53.8124 28.4163L58.6917 31.3352L62.0224 33.8163L60.9414 35.2174L57.6983 32.7947L54.5428 30.8973V31.1017L56.851 33.4077L55.9453 37.9321L54.9519 40.2964C54.669 41.1312 54.1235 41.8523 53.3969 42.352C52.6703 42.8518 51.8014 43.1034 50.9199 43.0695Z" fill="#FF5B35"/>
<path d="M41.2207 41.6102H39.4385V39.6544C39.4324 39.3459 39.3224 39.0486 39.1262 38.8102C38.9301 38.5719 38.6591 38.4065 38.3574 38.341L35.1727 37.728L31.9004 34.4295V31.5106H32.8938C33.3181 31.507 33.7365 31.4112 34.1199 31.2297C34.5034 31.0482 34.8427 30.7854 35.1143 30.4597L37.6562 28.1538C37.825 27.9893 37.9317 27.7717 37.9583 27.5376C37.985 27.3036 37.9298 27.0675 37.8022 26.8694L33.595 20.5936L36.8673 21.4401C37.288 21.4272 37.6973 21.301 38.0521 21.0749C38.407 20.8489 38.6942 20.5313 38.8833 20.1557L40.5779 16.7697L45.1942 14.96L53.2874 14.1719L53.4627 15.9233L45.4863 16.7114L41.8634 18.1709L40.461 20.9439C40.1825 21.5168 39.7729 22.0162 39.2653 22.4016C38.7577 22.787 38.1664 23.0476 37.5393 23.1623L39.3508 25.9061C39.6887 26.4606 39.8319 27.1119 39.7578 27.7568C39.6838 28.4018 39.3966 29.0036 38.9417 29.4673L36.4875 31.6857C35.788 32.4996 34.8278 33.0463 33.7703 33.2328V33.9041L36.1369 36.2976L38.7957 36.823C39.4807 36.9592 40.1003 37.3207 40.5557 37.8498C41.0111 38.3788 41.2761 39.045 41.3083 39.742L41.2207 41.6102Z" fill="#FF5B35"/>
<path d="M33.8284 42.0186L32.952 39.4207L27.4883 34.8671L28.6278 33.5244L34.5005 38.3699L35.523 41.4348L33.8284 42.0186Z" fill="#FF5B35"/>
<path d="M62.2583 44.3535L60.7682 43.3902C62.3821 40.8617 63.3857 37.9931 63.6999 35.0106C64.0141 32.0282 63.6302 29.0136 62.5786 26.2047C61.5269 23.3959 59.8363 20.8697 57.6401 18.8254C55.4438 16.7812 52.8021 15.2748 49.9234 14.4251C47.0447 13.5755 44.0077 13.4059 41.0522 13.9297C38.0966 14.4535 35.3032 15.6563 32.8926 17.4433C30.482 19.2302 28.5201 21.5525 27.1616 24.2267C25.8032 26.9009 25.0854 29.8539 25.0649 32.8528C25.0512 35.8227 25.742 38.7536 27.0808 41.4053L25.4739 42.1935C23.8369 38.8731 23.1014 35.1814 23.3412 31.4878C23.581 27.7942 24.7876 24.2283 26.8402 21.1469C28.8928 18.0656 31.7195 15.5769 35.0373 13.9299C38.3551 12.2828 42.0477 11.5352 45.7456 11.7618C49.4434 11.9885 53.0169 13.1815 56.1082 15.2214C59.1996 17.2613 61.7005 20.0766 63.3606 23.3855C65.0208 26.6944 65.782 30.3809 65.5681 34.0761C65.3541 37.7713 64.1724 41.3455 62.1414 44.4411L62.2583 44.3535Z" fill="#FF5B35"/>
<path d="M21.9653 52.7898L20.709 51.5347L25.5882 46.6892C27.1297 45.1209 29.2316 44.2285 31.4316 44.2081H44.0242C45.295 44.2081 46.5138 44.7124 47.4124 45.6102C48.311 46.5079 48.8159 47.7256 48.8159 48.9952C48.8219 49.7079 48.5668 50.3982 48.0985 50.9359C47.6303 51.4736 46.9813 51.8215 46.274 51.9142L35.4344 52.7315V50.9509L46.2447 50.1336C46.4979 50.1187 46.7359 50.0075 46.9097 49.823C47.0836 49.6385 47.1801 49.3945 47.1797 49.1411C47.1797 48.367 46.8718 47.6245 46.3239 47.0771C45.776 46.5297 45.0329 46.2221 44.258 46.2221H31.6654C30.7908 46.2206 29.9245 46.3927 29.117 46.7285C28.3095 47.0642 27.5768 47.5569 26.9614 48.1779L21.9653 52.7898Z" fill="#FF5B35"/>
<path d="M32.1041 63.6487L30.877 62.3643L35.2011 58.307L44.9889 59.7957C46.6335 60.0531 48.3145 59.6775 49.6928 58.7448L59.6851 52.615L65.5285 46.777C65.7012 46.594 65.8045 46.3567 65.8207 46.1057C65.8211 45.984 65.7952 45.8636 65.7447 45.7528C65.6943 45.642 65.6206 45.5433 65.5285 45.4635C64.8323 44.8214 63.9195 44.4649 62.972 44.4649C62.0245 44.4649 61.1117 44.8214 60.4155 45.4635L57.3477 48.1198L52.4685 49.7836H48.641V48.003H52.2932L56.5588 46.4852L59.2176 44.0916C60.2479 43.1645 61.5854 42.6514 62.972 42.6514C64.3586 42.6514 65.6961 43.1645 66.7264 44.0916C67.2348 44.6181 67.5267 45.316 67.5445 46.0473C67.5458 46.407 67.474 46.7632 67.3334 47.0944C67.1927 47.4256 66.9863 47.7248 66.7264 47.9738L60.7077 53.8117L50.5694 60.0875C48.8448 61.2164 46.7655 61.6734 44.7259 61.3719L35.8147 60L32.1041 63.6487Z" fill="#FF5B35"/>
<path d="M29.5036 69.2818L28.2473 68.0266L31.4028 64.8741L19.4529 52.9356L16.2975 56.088L15.0703 54.8329L19.4529 50.4544L33.9154 64.8741L29.5036 69.2818Z" fill="#FF5B35"/>
</svg>
