<svg width="83" height="83" viewBox="0 0 83 83" fill="none" xmlns="http://www.w3.org/2000/svg">
<circle cx="41.0271" cy="41.0271" r="41.0271" fill="white"/>
<path d="M60.6095 60.3396C61.056 59.8888 61.3078 59.281 61.3107 58.6467C61.3047 58.013 61.0534 57.4063 60.6095 56.9537C60.2703 56.619 59.8389 56.393 59.3705 56.3046C58.9021 56.2162 58.4179 56.2694 57.9799 56.4575L56.373 54.998L62.2164 49.16C62.2987 49.0835 62.3643 48.9909 62.4092 48.888C62.4541 48.785 62.4773 48.674 62.4773 48.5617C62.4773 48.4494 62.4541 48.3382 62.4092 48.2353C62.3643 48.1323 62.2987 48.0397 62.2164 47.9632C60.4488 46.1992 58.087 45.1561 55.5914 45.0374C53.0958 44.9187 50.6455 45.7328 48.7181 47.3211L48.1922 46.7957L50.0621 44.9275C50.3382 44.6571 50.5578 44.3348 50.7082 43.979C50.8587 43.6233 50.937 43.2412 50.9386 42.855C50.9409 42.4639 50.8645 42.0764 50.7139 41.7153C50.5633 41.3543 50.3417 41.0272 50.0621 40.7534L45.5042 36.1998L47.1404 34.5944L49.8576 37.309C50.0271 37.4584 50.2451 37.5413 50.4711 37.5425C50.6881 37.5396 50.8963 37.4564 51.0555 37.309L61.8658 26.5088C61.9489 26.4297 62.0151 26.3346 62.0603 26.2292C62.1055 26.1239 62.1288 26.0105 62.1288 25.8958C62.1282 25.7855 62.1046 25.6766 62.0593 25.576C62.014 25.4755 61.9481 25.3855 61.8658 25.312L55.2335 18.6567C55.0711 18.5049 54.857 18.4204 54.6346 18.4204C54.4121 18.4204 54.198 18.5049 54.0356 18.6567L43.2253 29.457C43.143 29.5335 43.0774 29.6261 43.0325 29.729C42.9876 29.832 42.9644 29.943 42.9644 30.0553C42.9644 30.1676 42.9876 30.2788 43.0325 30.3817C43.0774 30.4847 43.143 30.5773 43.2253 30.6538L45.9425 33.3976L44.3063 35.003L39.7484 30.4494C39.2036 29.9233 38.4755 29.6293 37.7178 29.6293C36.9601 29.6293 36.232 29.9233 35.6872 30.4494L34.577 29.3402C34.1673 28.9498 33.6238 28.7306 33.0577 28.7272C32.4927 28.7363 31.9513 28.9547 31.5384 29.3402L29.3763 31.5294C29.0109 31.9278 28.8082 32.4485 28.8082 32.9889C28.8082 33.5293 29.0109 34.05 29.3763 34.4484L30.4866 35.5576C29.9513 36.1032 29.6514 36.8369 29.6514 37.6009C29.6514 38.365 29.9513 39.0985 30.4866 39.6442L35.0445 44.1977L33.4083 45.8032L30.6911 43.0886C30.532 42.9412 30.3238 42.8579 30.1068 42.855C29.8797 42.8505 29.6597 42.9343 29.4932 43.0886L18.6829 53.8887C18.525 54.0553 18.4317 54.2726 18.4199 54.5017C18.4334 54.7218 18.5269 54.9295 18.6829 55.0855L25.3152 61.7408C25.4847 61.8902 25.7027 61.9732 25.9287 61.9744C26.1457 61.9715 26.3539 61.8882 26.5131 61.7408L37.3234 50.9406C37.4065 50.8615 37.4727 50.7665 37.5179 50.6611C37.5631 50.5557 37.5864 50.4422 37.5864 50.3276C37.5864 50.213 37.5631 50.0995 37.5179 49.9942C37.4727 49.8888 37.4065 49.7937 37.3234 49.7146L34.6062 47L36.2424 45.3945L40.8002 49.9481C41.0732 50.2187 41.397 50.4327 41.753 50.578C42.109 50.7233 42.4902 50.7969 42.8747 50.7946C43.2641 50.8007 43.6508 50.729 44.012 50.5836C44.3733 50.4382 44.7018 50.2222 44.9783 49.9481L46.9066 47.9925L47.4325 48.5179C45.7756 50.4321 44.9056 52.9022 44.9978 55.4313C45.0899 57.9603 46.1373 60.3607 47.9292 62.1495C48.0084 62.2325 48.1036 62.2985 48.209 62.3437C48.3145 62.3888 48.428 62.4122 48.5428 62.4122C48.6532 62.4117 48.7622 62.388 48.8629 62.3428C48.9635 62.2975 49.0536 62.2317 49.1271 62.1495L54.9706 56.3115L56.5775 57.8877C56.3527 58.3302 56.2767 58.8334 56.361 59.3224C56.4452 59.8115 56.6851 60.2604 57.045 60.6024C57.2675 60.8248 57.5316 61.0012 57.8224 61.1216C58.1132 61.242 58.4248 61.3039 58.7396 61.3039C59.0543 61.3039 59.366 61.242 59.6567 61.1216C59.9475 61.0012 60.2117 60.8248 60.4342 60.6024L60.6095 60.3396ZM50.4711 35.3241L48.3383 33.2225L52.5748 28.9899L54.7076 31.0916L50.4711 35.3241ZM55.9055 29.8948L53.7727 27.764L57.9507 23.619L60.0836 25.7207L55.9055 29.8948ZM54.62 20.2914L56.7528 22.4222L52.5748 26.5672L50.4711 24.4656L54.62 20.2914ZM45.0075 29.8948L49.2732 25.8083L51.3769 27.9099L47.1404 32.1425L45.0075 29.8948ZM30.1944 44.7232L32.2981 46.8249L28.0908 51.0282L25.9872 48.9265L30.1944 44.7232ZM24.7893 50.1232L26.8929 52.2249L22.6856 56.4282L20.582 54.3266L24.7893 50.1232ZM26.0164 59.7559L23.942 57.625L28.1492 53.4217L30.2821 55.5526L26.0164 59.7559ZM35.6288 50.1525L31.4215 54.3558L29.2887 52.2249L33.496 48.0216L35.6288 50.1525ZM30.5742 32.4635L32.7655 30.3035C32.7987 30.2573 32.8427 30.2199 32.8936 30.1945C32.9445 30.169 33.0008 30.1563 33.0577 30.1575C33.1798 30.1623 33.2952 30.2147 33.3791 30.3035L34.4601 31.3835L31.6845 34.3025L30.5742 33.1932C30.5066 33.1592 30.4498 33.107 30.4101 33.0426C30.3704 32.9782 30.3494 32.904 30.3494 32.8284C30.3494 32.7527 30.3704 32.6786 30.4101 32.6141C30.4498 32.5497 30.5066 32.4976 30.5742 32.4635ZM43.868 48.5471C43.7513 48.6644 43.6124 48.7576 43.4595 48.8212C43.3066 48.8847 43.1426 48.9175 42.9769 48.9175C42.8113 48.9175 42.6473 48.8847 42.4943 48.8212C42.3414 48.7576 42.2026 48.6644 42.0858 48.5471L31.7722 38.2722C31.544 38.0264 31.4185 37.7026 31.4215 37.3674C31.4192 37.2055 31.449 37.0448 31.5092 36.8945C31.5694 36.7442 31.6587 36.6073 31.7722 36.4917L34.2848 33.9813L36.2716 31.9965L36.7975 31.4711C37.0321 31.2428 37.3466 31.1151 37.674 31.1151C38.0014 31.1151 38.3159 31.2428 38.5505 31.4711L48.8642 41.775C49.1057 42.0145 49.2423 42.3399 49.244 42.6799C49.2378 43.0104 49.1013 43.325 48.8642 43.5556L43.868 48.5471ZM48.6597 60.223C47.4106 58.6226 46.7901 56.6212 46.9151 54.5956C47.04 52.57 47.9018 50.66 49.3382 49.225C50.7745 47.7899 52.6864 46.9289 54.7139 46.804C56.7414 46.6792 58.7446 47.2991 60.3465 48.5471L48.6597 60.223ZM58.4182 59.2305C58.3487 59.1687 58.2941 59.0919 58.2587 59.0059C58.2232 58.92 58.2079 58.827 58.2137 58.7342C58.2118 58.6419 58.2289 58.5503 58.2641 58.4649C58.2993 58.3795 58.3518 58.3022 58.4182 58.238C58.4847 58.1436 58.5719 58.0657 58.6732 58.01C58.7745 57.9544 58.8871 57.9225 59.0025 57.9169C59.1864 57.9273 59.3614 57.9993 59.4992 58.1213C59.6213 58.259 59.6934 58.4338 59.7037 58.6175C59.704 58.7095 59.686 58.8008 59.6509 58.886C59.6158 58.9711 59.5643 59.0485 59.4992 59.1137C59.4391 59.2 59.3595 59.2709 59.2669 59.3208C59.1743 59.3706 59.0712 59.3981 58.9661 59.4009C58.8609 59.4038 58.7565 59.382 58.6614 59.3371C58.5662 59.2923 58.4829 59.2258 58.4182 59.1429V59.2305Z" fill="#FF5B35"/>
<path d="M38.5156 42.806V44.5282C40.0838 44.49 41.5743 43.8387 42.667 42.7144C43.7596 41.59 44.3672 40.0822 44.3591 38.5151H42.6645C42.6651 39.6283 42.2327 40.6981 41.4586 41.4988C40.6845 42.2994 39.6292 42.7682 38.5156 42.806Z" fill="#FF5B35"/>
<path d="M44.4363 36.8406C44.4365 38.8643 43.6399 40.8068 42.2186 42.2487C40.7972 43.6906 38.8652 44.516 36.8398 44.5467V46.2397C39.3299 46.2319 41.7154 45.2382 43.4734 43.4764C45.2314 41.7146 46.2186 39.3283 46.2185 36.8406H44.4363Z" fill="#FF5B35"/>
</svg>
